<svg width="342" height="281" viewBox="0 0 342 281" fill="none" xmlns="http://www.w3.org/2000/svg">
<path d="M341.506 277.084C341.506 279.043 280.454 280.636 205.141 280.636C129.829 280.636 68.7756 279.043 68.7756 277.084C68.7756 275.115 129.829 273.521 205.141 273.521C280.454 273.521 341.506 275.115 341.506 277.084Z" fill="#BDBDBD"/>
<path d="M141.637 142.265H158.421V159.814H141.637V142.265ZM123.294 45.4096C130.239 38.0103 139.773 34.3106 151.896 34.3106C163.109 34.3106 172.088 37.4833 178.833 43.8075C185.578 50.1317 188.951 58.2161 188.951 68.0502C188.951 74.016 187.728 78.8435 185.282 82.5536C182.836 86.2744 177.823 91.7237 170.247 98.9228C164.734 104.151 161.145 108.578 159.482 112.204C157.819 115.829 156.987 121.184 156.987 128.267H141.975C141.975 120.225 142.931 113.753 144.843 108.831C146.753 103.908 151.007 98.2693 157.603 91.9134L164.485 85.252C166.548 83.3442 168.223 81.352 169.509 79.2651C171.844 75.6181 173.011 71.8236 173.011 67.8815C173.011 62.3689 171.332 57.5942 167.974 53.5467C164.615 49.4992 159.061 47.4755 151.311 47.4755C141.725 47.4755 135.095 50.9643 131.421 57.9315C129.355 61.8103 128.177 67.4073 127.89 74.7117H112.878C112.878 62.5693 116.349 52.7984 123.294 45.4096Z" fill="#B60036"/>
<path d="M53.9252 277.202C53.9252 279.067 43.6863 280.585 31.0559 280.585C18.4254 280.585 8.18547 279.067 8.18547 277.202C8.18547 275.325 18.4254 273.808 31.0559 273.808C43.6863 273.808 53.9252 275.325 53.9252 277.202Z" fill="#BDBDBD"/>
<path d="M0.0895466 175.098C-0.710464 179.103 4.09169 179.904 4.8917 185.501C5.69171 191.108 3.29064 192.711 4.0917 195.904C4.89171 199.109 9.6928 199.91 10.4939 207.91C11.2939 215.92 8.09279 215.119 8.8928 219.915C9.69281 224.722 14.496 224.722 15.296 228.727C16.0961 232.722 16.0961 238.329 17.6972 243.125C19.2972 247.931 24.0994 255.13 26.5004 255.13C28.9015 255.13 35.3037 241.533 33.7037 237.528C32.1026 233.523 29.7015 232.722 29.7015 229.528C29.7015 226.324 32.9026 218.324 32.1026 212.716C31.3026 207.119 24.0993 204.716 23.2993 200.711C22.4983 196.705 24.8993 186.302 19.2971 181.506C13.695 176.7 0.889557 171.103 0.0895466 175.098Z" fill="#B60036"/>
<path d="M26.1339 253.76C25.9126 253.76 25.7344 253.581 25.7334 253.359C25.7334 253.254 25.6638 242.861 22.6166 239.805C19.5241 236.716 17.7607 227.262 16.8974 209.132C16.1132 192.668 4.31017 179.103 4.19107 178.966C4.04561 178.797 4.06143 178.544 4.22691 178.407C4.3945 178.26 4.6464 178.27 4.79186 178.439C4.91307 178.576 16.8985 192.342 17.6964 209.09C18.5385 226.766 20.2809 236.347 23.1816 239.246C26.4628 242.524 26.5324 252.917 26.5334 253.359C26.5345 253.581 26.3552 253.76 26.135 253.76H26.1339Z" fill="#FBA000"/>
<path d="M73.3464 187.208C76.1765 190.044 66.9442 191.214 66.1442 196.821C65.3432 202.418 65.3432 204.821 62.1421 208.025C58.941 211.219 54.1388 212.02 54.9389 216.827C55.7389 221.622 57.3399 226.429 54.9389 228.832C52.5378 231.235 46.9355 231.235 45.3355 235.23C43.7345 239.235 44.5355 244.031 41.3344 248.036C38.1323 252.042 33.3301 260.042 29.329 258.44C25.3269 256.838 27.7279 238.434 29.329 235.23C30.929 232.036 32.5301 229.633 32.5301 227.23C32.5301 224.827 31.7301 220.832 33.3301 216.827C34.9312 212.821 43.7345 211.219 44.5355 208.826C45.3355 206.423 46.1355 193.617 50.9377 190.412C55.7388 187.208 68.5443 182.412 73.3464 187.208Z" fill="#B60036"/>
<path d="M30.571 257.07L30.3644 257.017C30.1757 256.901 30.1136 256.659 30.2274 256.459C30.2601 256.406 33.4664 251.051 34.1431 248.342C34.317 247.647 34.5278 246.582 34.7713 245.36C35.6557 240.922 36.9922 234.208 39.0507 232.152C42.0368 229.159 46.8084 220.021 50.1539 208.31C54.273 193.891 67.8932 189.675 68.0302 189.633C68.2463 189.57 68.4656 189.686 68.5278 189.896C68.591 190.107 68.4719 190.339 68.26 190.402C68.1272 190.434 54.9191 194.545 50.9222 208.532C47.5409 220.368 42.6745 229.654 39.6167 232.711C37.73 234.598 36.3693 241.439 35.5566 245.518C35.311 246.751 35.0981 247.815 34.92 248.532C34.2138 251.357 31.0485 256.648 30.9146 256.88C30.8387 256.996 30.7059 257.07 30.571 257.07Z" fill="#FBA000"/>
<path d="M29.5495 196.379C19.9452 197.18 23.1463 225.986 23.1463 225.986C25.5473 250.798 28.7495 262.003 31.1495 262.804C33.5506 263.605 38.3528 227.588 38.3528 218.787C38.3528 218.787 39.1528 195.578 29.5495 196.379Z" fill="#FBA000"/>
<path d="M30.7502 258.798H30.7017C30.4825 258.777 30.3265 258.577 30.3528 258.356C33.5117 232.289 29.5918 199.551 29.5528 199.224C29.5254 199.003 29.6814 198.803 29.9006 198.782C30.1146 198.75 30.3201 198.908 30.3465 199.13C30.3876 199.456 34.3181 232.289 31.1465 258.45C31.1233 258.651 30.9494 258.798 30.7502 258.798Z" fill="white"/>
<path d="M42.6789 277.022H18.3255C17.5118 277.022 16.8277 276.527 16.735 275.874L13.1966 250.619C13.0374 249.481 13.9197 248.469 15.0675 248.469H45.9369C47.0848 248.469 47.967 249.481 47.8078 250.619L44.2694 275.874C44.1767 276.527 43.4926 277.022 42.6789 277.022Z" fill="#FBA000"/>
<path d="M279.113 272.195H288.924V178.038H293.705V215.225H301.125V178.038H305.906V215.225V220.01H301.125H293.705V272.195H303.516C304.836 272.195 305.906 273.26 305.906 274.577C305.906 275.905 304.836 276.97 303.516 276.97H293.705H288.924H279.113C277.793 276.97 276.722 275.905 276.722 274.577C276.722 273.26 277.793 272.195 279.113 272.195Z" fill="#4BBD87"/>
<path d="M296.816 157.622C317.655 157.622 334.549 161.543 334.549 166.391V171.134C334.549 175.972 317.655 179.904 296.816 179.904C275.976 179.904 259.083 175.972 259.083 171.134V166.391C259.083 161.543 275.976 157.622 296.816 157.622Z" fill="#5EC796"/>
<path d="M237.1 15.9703C236.353 15.2641 235.501 14.6423 234.56 14.1575C232.95 13.3037 231.196 12.882 229.427 12.882C228.315 12.882 227.197 13.0507 226.105 13.388C225.896 13.4512 225.685 13.4829 225.477 13.4829C224.579 13.4829 223.746 12.9137 223.464 12.0072C223.117 10.9005 223.736 9.70947 224.848 9.36164C226.354 8.89786 227.896 8.66592 229.43 8.66592C231.871 8.66592 234.292 9.25624 236.517 10.4157C236.714 10.5211 236.908 10.6264 237.1 10.7424V15.9703Z" fill="#FBA000"/>
<path d="M242.013 22.147C241.114 22.147 240.283 21.5778 240.001 20.6713C239.435 18.8584 238.436 17.2562 237.1 15.9703V10.7423C239.929 12.3761 242.123 14.832 243.424 17.8043V21.6094C243.205 21.8096 242.942 21.9572 242.642 22.0521C242.432 22.1259 242.221 22.147 242.013 22.147Z" fill="#FBA000"/>
<path d="M233.791 53.5046C220.683 57.6048 206.737 50.3004 202.643 37.1882C198.547 24.0761 205.854 10.1312 218.962 6.04158C232.071 1.9414 246.017 9.24582 250.113 22.358C254.207 35.4701 246.9 49.415 233.791 53.5046ZM217.501 1.36164C201.81 6.26289 193.063 22.9588 197.965 38.6428C202.866 54.3373 219.561 63.0857 235.253 58.1845C250.945 53.2832 259.692 36.5874 254.79 20.8928C249.889 5.20884 233.194 -3.53961 217.501 1.36164Z" fill="#FBA000"/>
<path d="M244.471 79.0121L239.527 80.5509L232.492 58.0368L237.437 56.4874L244.471 79.0121Z" fill="#FBA000"/>
<path d="M254.629 120.214C251.472 121.194 248.114 119.434 247.127 116.282L236.312 81.6575C235.789 79.9816 236.723 78.2003 238.397 77.6838L243.764 75.9973C245.439 75.4809 247.22 76.4085 247.744 78.0844L258.558 112.709C259.545 115.871 257.785 119.223 254.629 120.214Z" fill="#B60036"/>
<path d="M256.715 105.004C256.715 105.004 245.574 98.1322 242.212 94.5801C238.852 91.028 237.43 89.4153 238.294 88.6564C239.158 87.908 248.566 92.0504 249.474 91.3442C250.382 90.6485 249.589 88.9094 250.61 88.1294C251.632 87.3494 257.7 93.5997 259.141 93.1254C260.581 92.6511 258.391 103.898 256.715 105.004Z" fill="#F79796"/>
<path d="M212.282 232.953L204.113 240.859L183.412 221.696L190.224 210.618L212.282 232.953Z" fill="#F79796"/>
<path d="M205.308 239.699C205.308 239.699 199.61 246.835 198.537 246.846C197.464 246.856 173.567 221.001 173.723 220.168C173.879 219.346 184.312 220.231 184.312 220.231L205.308 239.699Z" fill="url(#paint0_linear_35_22608)"/>
<path d="M188.951 209.47C188.951 209.47 212.881 234.482 213.804 234.482C214.725 234.482 328.929 146.797 328.929 146.797L280.52 125.326C280.52 125.326 219.05 142.223 188.951 209.47Z" fill="url(#paint1_linear_35_22608)"/>
<path d="M297.361 216.964L301.41 227.588L275.651 239.077L268.148 228.453L297.361 216.964Z" fill="#F79796"/>
<path d="M276.752 125.326C276.752 125.326 236.334 133.758 232.833 147.45C229.333 161.132 232.515 176.088 243.654 193.596C254.793 211.093 266.12 230.139 268.455 230.75C268.455 230.75 298.383 218.766 299.06 217.269C299.737 215.773 282.3 174.581 282.3 174.581C282.3 174.581 317.831 172.21 326.12 151.266L276.752 125.326Z" fill="url(#paint2_linear_35_22608)"/>
<path d="M273.926 125.2C273.559 127.582 317.707 155.24 325.521 153.901C333.335 152.573 343.442 120.319 340.646 96.2348C337.851 72.1502 316.28 54.0841 306.443 54.9273C296.606 55.7706 291.339 64.9933 290.002 79.6549C288.039 101.168 274.337 122.544 273.926 125.2Z" fill="#FBA000"/>
<path d="M310.852 58.6271C316.059 58.1738 333.963 68.672 338.149 99.6605C342.336 130.639 325.229 133.242 310.852 131.239C296.476 129.226 260.302 111.487 254.999 105.141C254.999 105.141 253.855 95.1599 257.701 91.6289C257.701 91.6289 292.596 95.1704 301.659 97.8898C310.721 100.609 291.122 60.3451 310.852 58.6271Z" fill="#FBA000"/>
<path d="M300.813 226.029C300.813 226.029 305.133 234.081 304.722 235.072C304.31 236.063 271.134 247.847 270.432 247.383C269.729 246.909 274.656 237.665 274.656 237.665L300.813 226.029Z" fill="url(#paint3_linear_35_22608)"/>
<path d="M281.62 38.5055L281.456 49.5728L283.109 49.5201C283.109 49.5201 284.434 58.6902 290.904 57.2462C292.764 56.8246 295.136 55.254 295.818 55.5702C296.63 55.9391 296.981 58.4477 297.164 59.175C297.868 61.9471 307.576 59.1434 306.003 56.2975C304.509 53.5992 302.28 49.9206 302.753 48.8982C304.398 45.325 304.865 36.4607 295.943 33.4988C288.834 31.1378 281.7 34.711 281.62 38.5055Z" fill="#F79796"/>
<path d="M306.003 56.2975C304.509 53.5992 302.28 49.9206 302.753 48.8982C302.753 48.8982 299.005 54.6533 295.547 55.5281L295.529 55.5386C295.642 55.5281 295.744 55.5281 295.818 55.5702C296.63 55.9391 296.981 58.4477 297.164 59.175C297.868 61.9471 307.576 59.1434 306.003 56.2975Z" fill="#F68A89"/>
<path d="M296.595 43.934C300.764 43.2278 298.174 52.5138 302.768 52.2081C307.363 51.8919 310.565 41.8469 307.193 34.1104C303.821 26.3632 297.407 26.7953 291.296 27.8494C285.185 28.9034 277.693 31.665 277.697 36.2922C277.708 47.4123 290.869 38.084 291.739 41.4253C292.411 44.0077 293.446 51.4913 290.765 51.66C288.084 51.8392 285.353 49.6257 283.235 50.1948C282.014 50.5216 278.659 65.1095 287.43 65.5943C296.107 66.0792 298.303 58.4163 296.475 52.1659C294.734 46.2106 294.559 44.2818 296.595 43.934Z" fill="#0A0909"/>
<defs>
<linearGradient id="paint0_linear_35_22608" x1="191.785" y1="227.093" x2="186.652" y2="233.497" gradientUnits="userSpaceOnUse">
<stop stop-color="#24346A"/>
<stop offset="0.96623" stop-color="#1E264E"/>
<stop offset="1" stop-color="#1E264E"/>
</linearGradient>
<linearGradient id="paint1_linear_35_22608" x1="214.102" y1="203.146" x2="249.958" y2="174.262" gradientUnits="userSpaceOnUse">
<stop stop-color="#24346A"/>
<stop offset="0.96623" stop-color="#1E264E"/>
<stop offset="1" stop-color="#1E264E"/>
</linearGradient>
<linearGradient id="paint2_linear_35_22608" x1="265.482" y1="175.456" x2="328.407" y2="198.278" gradientUnits="userSpaceOnUse">
<stop stop-color="#24346A"/>
<stop offset="0.96623" stop-color="#1E264E"/>
<stop offset="1" stop-color="#1E264E"/>
</linearGradient>
<linearGradient id="paint3_linear_35_22608" x1="283.903" y1="233.502" x2="287.768" y2="240.74" gradientUnits="userSpaceOnUse">
<stop stop-color="#24346A"/>
<stop offset="0.96623" stop-color="#1E264E"/>
<stop offset="1" stop-color="#1E264E"/>
</linearGradient>
</defs>
</svg>
