<svg width="295" height="278" viewBox="0 0 295 278" fill="none" xmlns="http://www.w3.org/2000/svg">
<path d="M204.568 274.552C204.568 276.186 171.763 277.514 131.291 277.514C90.8177 277.514 58.0132 276.186 58.0132 274.552C58.0132 272.91 90.8177 271.581 131.291 271.581C171.763 271.581 204.568 272.91 204.568 274.552Z" fill="#BDBDBD"/>
<path d="M264.659 274.552C264.659 276.186 255.699 277.514 244.635 277.514C233.58 277.514 224.62 276.186 224.62 274.552C224.62 272.91 233.58 271.581 244.635 271.581C255.699 271.581 264.659 272.91 264.659 274.552Z" fill="#BDBDBD"/>
<path d="M217.524 185.163C216.832 188.67 221.03 189.371 221.732 194.271C222.433 199.18 220.329 200.583 221.03 203.379C221.732 206.184 225.939 206.885 226.641 213.889C227.333 220.902 224.537 220.201 225.238 224.399C225.939 228.607 230.138 228.607 230.839 232.114C231.541 235.611 231.541 240.52 232.943 244.719C234.346 248.927 238.545 255.229 240.648 255.229C242.752 255.229 248.354 243.325 246.951 239.819C245.558 236.312 243.454 235.611 243.454 232.815C243.454 230.01 246.259 223.006 245.558 218.097C244.856 213.197 238.545 211.093 237.843 207.586C237.142 204.08 239.246 194.972 234.346 190.773C229.437 186.566 218.225 181.666 217.524 185.163Z" fill="#B60036"/>
<path d="M240.325 254.03C240.132 254.03 239.975 253.873 239.975 253.679C239.975 253.587 239.919 244.488 237.252 241.812C234.54 239.109 232.999 230.831 232.242 214.96C231.559 200.546 221.224 188.67 221.122 188.55C220.993 188.402 221.002 188.181 221.15 188.061C221.298 187.932 221.519 187.941 221.648 188.088C221.75 188.208 232.242 200.26 232.943 214.923C233.681 230.398 235.204 238.786 237.742 241.323C240.611 244.193 240.676 253.292 240.676 253.679C240.676 253.873 240.519 254.03 240.325 254.03Z" fill="#FBA000"/>
<path d="M281.666 195.766C284.139 198.248 276.055 199.272 275.354 204.181C274.653 209.081 274.653 211.185 271.857 213.99C269.051 216.786 264.844 217.488 265.545 221.696C266.246 225.894 267.649 230.102 265.545 232.206C263.441 234.31 258.541 234.31 257.138 237.807C255.736 241.314 256.437 245.512 253.632 249.019C250.836 252.525 246.628 259.529 243.131 258.127C239.624 256.724 241.728 240.612 243.131 237.807C244.524 235.011 245.927 232.907 245.927 230.803C245.927 228.699 245.225 225.202 246.628 221.696C248.031 218.189 255.736 216.786 256.437 214.692C257.138 212.588 257.84 201.376 262.048 198.571C266.246 195.766 277.458 191.567 281.666 195.766Z" fill="#B60036"/>
<path d="M244.21 256.927L244.035 256.881C243.869 256.78 243.813 256.567 243.915 256.392C243.943 256.346 246.748 251.658 247.338 249.287C247.495 248.678 247.68 247.746 247.892 246.675C248.667 242.79 249.839 236.912 251.639 235.113C254.25 232.492 258.43 224.492 261.355 214.24C264.963 201.616 276.886 197.925 277.006 197.888C277.199 197.833 277.393 197.934 277.439 198.119C277.495 198.303 277.393 198.506 277.209 198.562C277.089 198.589 265.526 202.188 262.029 214.434C259.067 224.796 254.813 232.926 252.137 235.602C250.485 237.254 249.295 243.243 248.575 246.814C248.363 247.893 248.178 248.825 248.021 249.453C247.403 251.926 244.635 256.558 244.515 256.761C244.45 256.863 244.33 256.927 244.21 256.927Z" fill="#FBA000"/>
<path d="M243.315 203.794C234.909 204.495 237.714 229.715 237.714 229.715C239.818 251.437 242.614 261.246 244.718 261.947C246.822 262.649 251.03 231.117 251.03 223.412C251.03 223.412 251.731 203.093 243.315 203.794Z" fill="#FBA000"/>
<path d="M244.367 258.441H244.33C244.136 258.422 243.998 258.247 244.026 258.053C246.785 235.233 243.361 206.572 243.324 206.285C243.297 206.092 243.435 205.916 243.629 205.898C243.813 205.87 243.989 206.009 244.016 206.202C244.053 206.488 247.495 235.233 244.718 258.136C244.699 258.311 244.542 258.441 244.367 258.441Z" fill="white"/>
<path d="M254.813 274.395H233.497C232.777 274.395 232.177 273.962 232.104 273.389L229.003 251.28C228.865 250.283 229.64 249.397 230.636 249.397H257.664C258.67 249.397 259.445 250.283 259.307 251.28L256.206 273.389C256.123 273.962 255.524 274.395 254.813 274.395Z" fill="#FBA000"/>
<path d="M28.7888 41.1551C28.7888 41.1551 22.7631 36.0613 22.311 36.3843C21.868 36.7165 22.5601 39.6048 22.5601 39.6048C22.5601 39.6048 18.4906 36.5504 16.7374 38.2575C14.9841 39.9739 20.1978 51.3794 25.3284 52.7635L28.7888 41.1551Z" fill="#F79796"/>
<path d="M233.552 35.277C233.552 35.277 239.578 30.1926 240.021 30.5155C240.473 30.8385 239.781 33.736 239.781 33.736C239.781 33.736 243.85 30.6724 245.604 32.3888C247.357 34.0959 242.143 45.5013 237.013 46.8855L233.552 35.277Z" fill="#F79796"/>
<path d="M89.2949 256.051V265.251H120.789L121.943 254.63L89.2949 256.051Z" fill="url(#paint0_linear_35_22607)"/>
<path d="M89.2949 265.251L83.4075 271.904C82.9184 272.467 82.9092 273.205 83.223 273.759C83.4906 274.22 83.9797 274.552 84.5979 274.552H118.565C118.87 274.552 119.156 274.432 119.377 274.238C119.59 274.054 119.737 273.786 119.774 273.473L120.789 265.251H89.2949Z" fill="#1D264C"/>
<path d="M176.1 256.014L177.005 265.251H145.501L143.932 254.611L176.1 256.014Z" fill="url(#paint1_linear_35_22607)"/>
<path d="M177.005 265.251L182.892 271.904C183.381 272.467 183.39 273.205 183.076 273.759C182.809 274.22 182.32 274.552 181.701 274.552H147.734C147.43 274.552 147.144 274.432 146.922 274.238C146.71 274.054 146.562 273.786 146.516 273.473L145.501 265.251H177.005Z" fill="#1D264C"/>
<path d="M105.112 95.4328C105.112 95.4328 93.051 136.533 90.8179 167.797C88.5848 199.069 88.6863 257.084 88.6863 257.084H122.34C122.34 257.084 130.211 177.855 133.33 177.569C136.458 177.283 142.705 257.084 142.705 257.084H177.918C177.918 257.084 169.992 120.661 157.424 95.4328H105.112Z" fill="#24346A"/>
<path d="M241.193 45.2153L233.525 34.0221C220.163 41.6811 201.311 42.0779 178.324 35.7845C161.493 31.1891 149.746 26.16 130.931 26.16C112.115 26.16 93.6229 39.4757 84.2567 42.0317C61.2704 48.3158 42.4089 47.9282 29.0564 40.2692L21.3882 51.4625C21.3882 51.4625 52.744 77.9092 99.0949 70.8038C97.9599 86.3618 95.3854 110.142 96.179 113.814C98.0338 122.424 162.637 122.821 165.765 113.012C166.688 110.132 162.351 79.9577 161.705 64.2706C209.034 72.3449 241.193 45.2153 241.193 45.2153Z" fill="#FBA000"/>
<path d="M147.983 11.5618L148.131 21.2601L146.682 21.2139C146.682 21.2139 145.519 29.2421 139.854 27.9686C138.22 27.6088 136.144 26.2339 135.544 26.5015C134.834 26.8337 134.529 29.0299 134.372 29.6666C133.754 32.0935 125.246 29.6389 126.63 27.1474C127.941 24.7851 129.888 21.5554 129.472 20.6603C128.033 17.5321 127.627 9.77157 135.443 7.17857C141.662 5.11156 147.909 8.23977 147.983 11.5618Z" fill="#F79796"/>
<path d="M126.63 27.1474C127.941 24.7851 129.888 21.5554 129.472 20.6603C129.472 20.6603 132.758 25.7078 135.784 26.4737L135.803 26.483C135.701 26.4738 135.609 26.4738 135.544 26.5015C134.834 26.8337 134.529 29.0299 134.372 29.6666C133.754 32.0935 125.246 29.6389 126.63 27.1474Z" fill="#F68A89"/>
<path d="M134.871 16.3233C131.217 15.6958 133.487 23.8347 129.463 23.5578C125.44 23.2902 122.635 14.4962 125.588 7.7046C128.541 0.922215 134.16 1.30057 139.512 2.23257C144.864 3.15535 151.425 5.57298 151.416 9.62395C151.407 19.3684 139.882 11.1927 139.125 14.1179C138.534 16.3879 137.63 22.9396 139.974 23.0873C142.327 23.2441 144.717 21.3063 146.572 21.7954C147.642 22.0907 150.576 34.8618 142.899 35.2862C135.295 35.7107 133.376 29.0022 134.972 23.5209C136.495 18.3164 136.652 16.6185 134.871 16.3233Z" fill="#0A0909"/>
<path d="M293.616 73.6735C293.025 73.6735 292.481 73.2951 292.296 72.7045C288.744 61.3175 284.047 54.8766 278.344 53.5755C274.533 52.6988 271.303 54.3691 267.88 56.1316C264.475 57.8941 260.95 59.7119 256.769 58.9552C248.428 57.4603 242.116 46.6085 237.465 25.7723C237.299 25.0249 237.77 24.2866 238.508 24.1205C239.264 23.9452 239.993 24.4251 240.16 25.1725C244.487 44.5231 250.236 54.9781 257.258 56.233C260.516 56.8144 263.478 55.2919 266.606 53.677C270.15 51.8499 274.164 49.7829 278.962 50.881C285.698 52.4128 291.069 59.4812 294.935 71.8741C295.166 72.6123 294.76 73.3875 294.031 73.6089C293.893 73.6551 293.754 73.6735 293.616 73.6735Z" fill="#B60036"/>
<path d="M246.849 21.7952C244.468 27.6456 237.797 30.4508 231.946 28.0701C226.936 26.0308 224.158 20.8447 224.961 15.7233C225.09 14.8651 244.081 8.91326 245.262 10.4358C247.707 13.5548 248.455 17.8642 246.849 21.7952Z" fill="#B60036"/>
<path d="M238.018 0.0916729L238.184 0.0455341C238.923 -0.148248 239.688 0.294702 239.882 1.03292L242.9 12.2169C243.103 12.9551 242.66 13.721 241.922 13.924L241.755 13.9609C241.017 14.164 240.251 13.7211 240.058 12.9828L237.04 1.7988C236.837 1.06059 237.28 0.294683 238.018 0.0916729Z" fill="#FBA000"/>
<path d="M226.197 3.28441L226.363 3.23827C227.102 3.03526 227.868 3.47824 228.061 4.21646L231.079 15.4097C231.282 16.1387 230.839 16.9045 230.101 17.1075L229.935 17.1537C229.196 17.3475 228.43 16.9138 228.237 16.1756L225.219 4.98235C225.016 4.24413 225.459 3.47819 226.197 3.28441Z" fill="#FBA000"/>
<path d="M242.549 18.1781L231.365 21.094C226.908 22.2475 222.313 19.553 221.15 15.096L220.993 14.4685C220.698 13.3427 221.381 12.1892 222.497 11.894L245.816 5.83141C246.942 5.54535 248.095 6.21892 248.381 7.3447L248.547 7.97217C249.71 12.4292 247.006 17.0246 242.549 18.1781Z" fill="#B60036"/>
<path d="M16.2204 126.244C15.9251 126.244 15.6298 126.152 15.3714 125.958C4.6211 117.662 -0.537166 109.625 0.0441813 102.086C0.634757 94.4545 6.74354 89.4715 12.6585 84.6454C18.7765 79.6532 24.5531 74.9378 24.8668 67.5556C25.0421 63.3293 23.3165 60.5333 21.4894 57.5805C19.5147 54.3877 17.4661 51.0934 17.8814 46.0458C18.6011 37.141 26.6108 28.9191 41.6889 21.62C42.3718 21.2785 43.2023 21.5739 43.5345 22.2567C43.8759 22.9488 43.5806 23.77 42.8977 24.1115C28.7701 30.9492 21.2772 38.4052 20.6405 46.2672C20.2991 50.4105 22.0246 53.188 23.8425 56.1317C25.7157 59.1584 27.8381 62.5911 27.6258 67.6664C27.266 76.3035 20.7235 81.6371 14.4025 86.7954C8.69976 91.4555 3.30152 95.8571 2.80322 102.298C2.30492 108.85 7.1034 116.075 17.0694 123.762C17.6692 124.232 17.7799 125.1 17.3185 125.709C17.0417 126.059 16.6356 126.244 16.2204 126.244Z" fill="#B60036"/>
<path d="M50.6585 32.158C44.7804 33.4961 38.9392 29.8234 37.6012 23.9454C36.2632 18.0765 39.9358 12.2353 45.8139 10.8973C51.6828 9.55929 57.5239 13.2319 58.8619 19.11C60.1999 24.9788 56.5273 30.82 50.6585 32.158Z" fill="#B60036"/>
<path d="M62.7656 32.4072C60.4402 32.9424 57.1828 27.3319 55.4849 19.8758C53.787 12.4198 54.2945 5.95123 56.6199 5.42525C58.9361 4.89927 62.1934 10.5097 63.8913 17.9565C65.5892 25.4125 65.0818 31.8812 62.7656 32.4072Z" fill="#5EC794"/>
<path d="M47.4657 22.7919L46.9951 20.7248C45.4356 13.8686 49.7634 6.98473 56.6196 5.42525L62.7653 32.4072C55.9091 33.9759 49.0252 29.6388 47.4657 22.7919Z" fill="#B60036"/>
<path d="M62.1378 29.6573C60.283 30.0726 57.69 25.6064 56.3428 19.6822C54.9955 13.7487 55.3923 8.60892 57.2471 8.18445C59.0926 7.75997 61.6857 12.2262 63.0329 18.1596C64.3894 24.0838 63.9833 29.2328 62.1378 29.6573Z" fill="#B60036"/>
<path d="M59.1387 15.871C58.825 15.9356 58.3821 15.179 58.1514 14.1639C57.9207 13.1581 57.9945 12.2814 58.3082 12.2076C58.622 12.1338 59.0649 12.8997 59.2956 13.9055C59.5263 14.9206 59.4525 15.7972 59.1387 15.871Z" fill="#FBA000"/>
<path d="M61.3439 25.5602C61.0301 25.634 60.5872 24.8773 60.3565 23.8623C60.1258 22.8565 60.1996 21.9798 60.5134 21.906C60.8271 21.8322 61.2701 22.5981 61.5008 23.6039C61.7315 24.619 61.6576 25.4956 61.3439 25.5602Z" fill="#FBA000"/>
<defs>
<linearGradient id="paint0_linear_35_22607" x1="89.2949" y1="259.945" x2="121.94" y2="259.945" gradientUnits="userSpaceOnUse">
<stop stop-color="#F79795"/>
<stop offset="0.966168" stop-color="#F68A89"/>
<stop offset="1" stop-color="#F68A89"/>
</linearGradient>
<linearGradient id="paint1_linear_35_22607" x1="177.005" y1="259.936" x2="143.928" y2="259.936" gradientUnits="userSpaceOnUse">
<stop stop-color="#F79795"/>
<stop offset="0.966168" stop-color="#F68A89"/>
<stop offset="1" stop-color="#F68A89"/>
</linearGradient>
</defs>
</svg>
