<svg width="9" height="16" viewBox="0 0 9 16" fill="none" xmlns="http://www.w3.org/2000/svg">
<path d="M4.416 15.84V14.064C3.70133 14.032 3.024 13.9093 2.384 13.696C1.75467 13.4827 1.20533 13.1627 0.736 12.736L1.216 11.68C1.71733 12.096 2.25067 12.4053 2.816 12.608C3.392 12.8107 4.05867 12.912 4.816 12.912C5.72267 12.912 6.39467 12.736 6.832 12.384C7.28 12.032 7.504 11.5733 7.504 11.008C7.504 10.5387 7.344 10.1653 7.024 9.888C6.71467 9.61067 6.18667 9.392 5.44 9.232L3.84 8.896C2.88 8.69333 2.16 8.352 1.68 7.872C1.21067 7.38133 0.976 6.736 0.976 5.936C0.976 5.33867 1.11467 4.80533 1.392 4.336C1.68 3.856 2.08 3.472 2.592 3.184C3.11467 2.896 3.72267 2.72533 4.416 2.672V0.879999H5.504V2.672C6.048 2.71467 6.58667 2.848 7.12 3.072C7.664 3.296 8.128 3.616 8.512 4.032L8.064 5.056C7.63733 4.61867 7.16267 4.304 6.64 4.112C6.11733 3.90933 5.536 3.808 4.896 3.808C4.10667 3.808 3.472 4 2.992 4.384C2.512 4.768 2.272 5.27467 2.272 5.904C2.272 6.40533 2.42133 6.8 2.72 7.088C3.02933 7.376 3.51467 7.58933 4.176 7.728L5.776 8.08C6.81067 8.29333 7.57867 8.62933 8.08 9.088C8.58133 9.54667 8.832 10.16 8.832 10.928C8.832 11.8027 8.52267 12.5173 7.904 13.072C7.28533 13.616 6.48533 13.9413 5.504 14.048V15.84H4.416Z" fill="#181818"/>
</svg>
