<svg width="710" height="568" viewBox="0 0 710 568" fill="none" xmlns="http://www.w3.org/2000/svg">
<g filter="url(#filter0_d_103_361)">
<path d="M336.625 511.641L333.959 510.824L331.254 511.504C200.959 544.295 115.709 524.313 67.0473 478.582C18.2901 432.76 3.2217 358.244 19.7136 275.173L20.2691 272.375L19.2648 269.705C8.07664 239.961 6.99972 201.787 16.1513 163.536C25.2847 125.361 44.4182 87.9285 72.6414 59.6324C100.755 31.4463 137.91 12.2667 183.705 10.1879C229.619 8.10376 285.198 23.1745 349.98 65.36L350.216 65.5138L350.461 65.654C465.888 131.876 557.156 124.763 616.263 120.157C625.577 119.431 634.092 118.767 641.777 118.463C655.998 117.899 666.013 118.639 673.114 121.413C679.364 123.855 683.852 128.052 686.727 136.728C689.838 146.115 690.961 160.591 689.085 182.859C687.225 204.939 682.515 233.725 674.725 271.189C657.332 354.832 639.017 415.098 618.55 457.655C598.116 500.145 575.953 524.12 551.28 536.511C526.577 548.916 497.746 550.527 462.203 544.911C427.036 539.355 386.633 526.97 338.761 512.296L336.625 511.641Z" stroke="#FAFAFA" stroke-width="20" shape-rendering="crispEdges"/>
</g>
<defs>
<filter id="filter0_d_103_361" x="0" y="0" width="710" height="568" filterUnits="userSpaceOnUse" color-interpolation-filters="sRGB">
<feFlood flood-opacity="0" result="BackgroundImageFix"/>
<feColorMatrix in="SourceAlpha" type="matrix" values="0 0 0 0 0 0 0 0 0 0 0 0 0 0 0 0 0 0 127 0" result="hardAlpha"/>
<feOffset dx="6" dy="6"/>
<feGaussianBlur stdDeviation="2"/>
<feComposite in2="hardAlpha" operator="out"/>
<feColorMatrix type="matrix" values="0 0 0 0 0 0 0 0 0 0 0 0 0 0 0 0 0 0 0.25 0"/>
<feBlend mode="normal" in2="BackgroundImageFix" result="effect1_dropShadow_103_361"/>
<feBlend mode="normal" in="SourceGraphic" in2="effect1_dropShadow_103_361" result="shape"/>
</filter>
</defs>
</svg>
