<svg width="1920" height="273" viewBox="0 0 1920 273" fill="none" xmlns="http://www.w3.org/2000/svg">
<path d="M196.052 42.5578C195.836 44.3485 195.567 46.1917 195.406 47.561C199.551 49.4043 203.373 51.0896 207.733 52.9329C209.994 51.9849 212.901 50.7209 215.862 49.457C216.131 49.8256 216.454 50.1416 216.723 50.5103C213.762 53.3542 210.802 56.1981 207.195 59.6213C209.887 59.99 212.201 59.99 214.301 60.622C217.961 61.6753 219.2 64.5719 217.8 68.1531C214.408 76.9482 211.932 78.5282 201.919 78.4755C200.466 78.4755 199.013 78.8968 195.621 79.4235C203.804 81.5301 210.102 83.1627 216.346 84.7953C216.346 85.2166 216.346 85.638 216.346 86.0593C214.462 86.7439 212.524 87.3759 210.586 88.0605C212.847 90.5358 215.054 92.9584 217.961 96.2236C211.394 97.0136 208.81 90.8518 203.373 90.8518C204.342 94.4857 205.149 97.4349 205.957 100.437L206.172 100.279C202.619 100.49 202.027 97.2243 200.197 95.4337C198.582 93.8537 197.182 92.1158 194.814 90.8518C199.982 99.4889 205.526 107.81 200.897 119.344C199.013 113.866 197.613 109.39 195.836 105.019C194.76 102.28 193.253 99.6995 191.638 97.2243C190.346 95.223 188.677 93.0111 185.662 94.5384C182.809 96.013 180.656 98.1723 181.679 101.596C182.863 105.703 184.263 109.759 185.878 113.709C199.497 146.098 213.224 178.381 226.736 210.823C228.297 214.51 230.235 216.511 234.488 216.458C237.987 216.406 241.486 217.301 245.039 217.512C247.407 217.67 249.776 216.722 249.561 214.088C249.453 212.666 247.892 210.612 246.6 210.191C240.14 208.19 237.341 203.555 235.511 197.604C234.703 194.918 232.927 192.39 231.096 190.231C228.512 187.176 225.175 184.649 222.591 181.541C216.616 174.221 219.092 164.636 227.974 161.055C233.465 158.843 238.794 156.525 245.146 160.265C249.507 162.845 258.228 159.58 261.619 155.156C263.718 152.417 265.926 151.575 269.317 152.259C271.578 152.681 274.054 152.417 276.423 152.154C280.998 151.68 284.444 153.523 287.081 156.894C290.365 161.107 290.042 166.005 285.574 168.849C281.86 171.219 277.338 172.483 272.332 174.589C272.654 180.119 273.623 186.65 276.315 192.706C278.092 196.709 281.483 198.552 286.328 197.815C289.396 197.341 292.572 197.71 295.91 197.71C295.802 202.397 291.819 202.923 289.612 205.03C287.835 206.715 287.674 208.506 289.504 209.77C297.848 215.616 306.73 220.092 317.496 216.774C319.219 216.248 321.318 215.458 322.287 214.088C324.333 211.297 325.41 207.979 330.201 208.822C331.116 208.98 333.269 206.347 333.538 204.819C334.184 201.185 334.238 197.341 334.023 193.654C333.969 192.338 332.569 190.916 331.439 189.968C330.201 188.967 328.586 188.44 327.078 187.756C321.318 185.123 318.035 181.12 318.896 174.484C319.542 169.586 324.333 163.688 330.147 163.319C337.63 162.845 342.744 158.843 348.234 154.893C356.417 148.994 363.576 148.942 371.651 154.471C375.581 157.157 378.434 160.633 379.295 165.426C381.502 178.329 383.763 191.179 385.809 204.135C386.132 206.136 385.271 208.295 385.109 210.402C384.732 214.931 385.917 216.195 390.492 216.195C392.969 216.195 395.391 216.037 397.867 215.932C405.188 215.51 412.51 214.878 419.885 214.668C429.251 214.352 432.212 211.771 432.104 202.607C431.997 194.339 431.458 186.07 430.92 177.802C430.812 176.011 430.166 174.115 429.359 172.483C424.729 163.056 423.168 152.839 421.5 142.674C421.392 141.884 421.446 141.094 421.177 140.357C416.278 127.928 416.224 125.558 420.261 112.971C415.793 113.34 405.996 118.659 398.244 124.874C396.414 123.768 394.476 122.767 392.753 121.503C390.385 119.765 388.985 117.237 390.223 114.498C392.107 110.285 392 106.809 388.339 103.649C387.801 103.175 387.262 102.175 387.37 101.543C387.585 100.384 388.016 98.6989 388.824 98.3302C389.631 97.9616 391.623 98.6989 392.107 99.4889C392.861 100.753 392.807 102.543 393.13 104.071C393.507 105.861 393.615 107.863 394.368 109.495C396.952 114.972 402.551 116.236 405.673 111.128C410.733 102.807 419.562 96.8557 421.23 86.27C421.715 83.0047 423.653 79.1601 427.636 77.5275C428.551 77.1588 429.897 76.1582 429.951 75.4736C430.113 70.1017 434.581 68.0478 438.295 65.0985C437.488 62.7286 436.572 60.5693 436.034 58.252C435.011 53.8808 438.08 46.4024 441.686 44.0324C444.54 42.1891 452.022 43.5058 455.414 46.5077C460.366 50.8263 461.497 57.3041 458.428 63.2552C455.36 69.1011 455.467 71.8396 461.227 74.1042C469.787 77.4222 473.07 84.6373 477.162 91.4838C477.323 91.6944 477.377 91.9578 477.538 92.2211C482.76 100.279 488.251 108.179 489.058 118.08C489.166 119.133 489.704 120.134 490.189 121.082C492.288 125.664 492.827 125.927 498.21 124.347C499.879 123.82 501.44 123.241 502.409 125.137C503.593 127.401 502.463 128.876 500.255 129.297C497.618 129.771 496.81 131.404 496.272 133.669C495.357 137.513 492.396 137.724 489.166 136.881C485.021 135.775 483.783 134.09 484.537 130.087C485.183 126.611 485.559 123.399 481.468 120.134C480.93 122.925 480.445 124.874 480.284 126.822C479.584 135.407 478.884 143.833 471.778 150.311C469.41 152.47 469.464 155.946 471.348 158.474C473.555 161.423 473.609 164.162 472.532 167.48C471.778 169.744 471.778 172.22 471.671 174.589C471.455 179.803 469.195 184.175 466.18 188.388C461.658 194.655 461.55 201.923 462.304 209.138C462.627 212.245 464.457 214.931 468.01 215.089C477 215.51 485.936 215.774 494.926 215.774C501.171 215.774 501.494 215.352 501.709 209.507C501.817 205.504 501.547 201.449 501.817 197.499C502.14 192.97 501.547 188.967 496.003 186.281C498.91 183.648 501.117 181.383 503.539 179.435C512.637 172.167 521.681 164.846 530.94 157.789C532.77 156.367 535.3 154.893 537.453 154.945C555.756 155.261 574.005 155.788 592.308 156.683C594.946 156.789 597.799 158.79 600.006 160.581C607.166 166.374 614.056 172.483 621 178.434C622.238 179.487 623.853 180.435 624.446 181.805C625.092 183.279 625.522 185.913 624.715 186.65C621.269 189.862 621.431 193.812 621.377 197.815C621.323 202.607 621.377 207.453 621.323 212.245C621.269 215.51 622.831 217.248 626.168 217.459C626.437 217.459 626.706 217.512 626.976 217.512C631.982 217.09 638.98 219.671 641.456 214.826C644.309 209.085 643.933 201.923 640.057 195.182C637.473 196.656 635.266 197.92 631.713 199.921C632.951 196.762 633.866 194.971 634.243 193.075C634.566 191.653 633.974 190.442 631.928 191.074C631.282 191.284 630.421 190.968 629.667 190.916C629.829 190.126 629.667 188.914 630.098 188.651C633.597 186.86 635.643 184.069 637.634 180.804C639.303 178.065 645.117 179.698 647.109 183.437C648.347 185.755 648.885 188.493 649.962 190.968C651.254 193.865 653.353 194.023 656.529 192.022C655.668 191.021 655.022 190.073 654.215 189.283C651.954 187.071 652.33 185.122 654.538 183.121C656.476 181.383 658.36 179.593 660.298 177.855C661.051 178.592 662.182 179.698 663.366 180.804C667.457 184.543 667.35 184.333 672.302 181.699C674.994 180.225 678.17 179.593 681.023 178.645C683.553 180.014 679.085 183.964 683.553 184.438C683.984 184.491 684.63 186.123 684.576 186.176C680.108 189.283 683.768 192.18 685.437 195.603C683.499 195.234 682.315 195.024 681.13 194.813C681.184 196.024 680.7 197.709 681.346 198.341C682.584 199.5 685.006 201.133 685.921 200.659C690.605 198.394 696.526 197.499 697.603 190.81C698.088 187.756 699.918 184.965 701.264 181.699C700.295 180.857 699.272 179.961 698.303 179.119C697.549 178.487 696.796 177.802 695.611 176.696C698.572 175.959 700.779 175.379 703.525 174.695C702.663 172.325 702.017 170.429 701.264 168.375C702.286 168.217 703.04 168.006 703.848 168.006C706.001 168.006 708.423 170.218 710.254 166.69C710.63 165.9 713.968 166.742 715.852 166.532C721.181 165.952 722.15 164.636 720.482 159.843C718.005 152.523 715.314 145.255 712.407 137.039C709.123 140.041 706.485 140.568 703.848 137.355C701.91 134.985 700.187 131.983 696.58 131.562C694.588 136.091 692.704 140.357 690.497 145.466C682.369 135.723 690.336 127.665 691.52 119.449C684.737 118.132 678.385 116.078 671.871 119.818C671.548 119.396 671.279 118.922 670.956 118.501C671.495 117.026 671.764 115.341 672.733 114.13C673.702 112.919 675.424 112.287 676.609 111.181C677.847 109.969 678.87 108.495 679.946 107.178C678.331 106.546 676.716 105.914 675.101 105.229C673.379 104.545 671.656 103.86 669.18 102.86C676.77 94.5384 684.307 101.964 692.381 101.648C689.797 97.0663 692.758 91.7998 688.936 87.5866C688.559 87.1653 689.151 85.3219 689.797 84.9006C690.497 84.4266 692.166 84.4793 692.758 85.006C694.481 86.6386 696.042 88.4818 697.441 90.4305C698.841 92.3264 699.918 94.3277 700.994 96.0657C712.407 86.0066 721.827 74.9996 732.809 64.1506C721.666 64.6772 721.666 64.6772 716.929 57.7254C711.815 61.5699 707.508 57.1987 702.34 56.3561C704.386 51.3529 708.154 49.457 713.107 48.9303C717.736 48.4037 717.682 48.2456 720.912 43.5058C714.291 43.4531 712.353 37.186 705.947 34.6581C708.262 33.2361 709.554 31.8668 711.007 31.6035C716.552 30.7081 721.128 33.1834 725.38 36.1853C729.525 39.0819 733.616 42.1365 739.161 46.139C738.031 39.6612 736.9 34.4474 742.553 32.4461C741.745 27.2322 740.991 22.545 740.076 16.9625C746.267 18.7531 748.42 22.6503 749.389 27.4955C750.304 32.1827 751.004 36.87 751.919 42.2945C759.025 38.5026 764.085 28.3909 774.69 35.3953C771.46 38.6079 768.5 41.5572 765.216 44.8224C766.131 51.5109 766.131 51.4055 773.075 52.2482C776.574 52.6695 780.02 53.5122 783.411 54.5128C786.318 55.4081 788.633 57.1988 789.817 60.78C785.026 61.8333 780.935 64.9932 776.951 60.2007C773.183 66.6258 773.291 66.5205 776.79 70.5757C779.266 73.4196 781.581 76.3689 783.572 79.5288C784.38 80.8454 784.057 82.8994 784.488 86.3753C778.943 83.0574 774.798 80.5295 770.33 77.8435C770.599 84.3213 777.166 90.6411 770.814 98.0669C769.899 92.6951 764.031 91.5891 762.847 86.5333C762.201 83.6367 758.864 84.1633 756.495 84.532C753.157 85.006 750.897 87.1126 750.897 90.4832C750.843 97.1717 751.273 103.86 751.327 110.549C751.381 120.924 751.65 131.351 751.22 141.726C750.789 153.997 749.712 166.268 749.012 178.539C748.905 180.857 749.228 183.174 749.335 185.175C752.834 183.174 756.172 181.489 759.187 179.435C762.255 177.328 764.139 177.907 765.431 181.225C766.023 182.7 766.723 184.122 767.531 185.86C769.953 183.806 771.837 181.436 774.313 180.277C776.574 179.171 779.481 179.329 782.227 178.908C782.657 180.225 782.98 183.279 783.734 183.385C786.587 183.806 789.548 183.279 792.455 182.858C792.67 182.805 793.101 179.961 792.509 179.487C790.947 178.171 788.902 177.433 785.403 175.643C790.947 176.011 794.877 176.275 798.807 176.485C799.076 176.064 799.614 175.485 799.507 175.169C795.577 164.267 797.3 153.471 799.776 142.569C801.445 135.301 802.683 127.928 804.136 120.555C804.298 119.765 804.621 118.87 804.352 118.185C800.368 107.863 807.205 98.3303 806.72 88.2185C806.666 86.9546 808.712 84.8479 810.219 84.374C814.203 83.11 814.956 80.4241 814.849 76.9482C814.741 73.9989 814.849 71.0497 814.795 68.1531C814.687 56.5141 822.224 51.9849 832.506 57.5147C838.696 60.8326 839.504 61.096 837.673 68.1005C835.574 76.4742 836.92 83.4787 841.657 90.5358C844.026 94.0644 845.318 98.2776 846.932 102.227C848.224 105.387 850.485 107.073 853.931 106.546C859.852 105.651 865.881 105.019 871.534 103.228C876.109 101.806 879.985 98.6989 885.153 98.1723C888.383 97.8563 889.675 94.433 889.944 91.3785C890.213 88.4819 889.998 85.5853 889.998 82.004C896.081 85.7433 895.596 91.5891 897.534 96.803C905.286 92.2738 897.642 86.5859 899.149 81.3721C900.441 81.8987 901.572 82.0567 902.218 82.6887C906.148 86.2699 907.224 90.7991 906.686 95.855C906.363 98.7516 903.779 101.806 908.139 104.229C912.715 106.757 916.699 109.706 922.351 106.493C926.819 103.965 931.664 101.964 936.455 100.174C943.022 97.6983 946.521 99.3309 949.374 105.756C949.697 106.493 949.859 107.283 950.128 108.021C951.312 111.707 953.466 113.024 957.611 111.918C961.002 110.97 964.663 111.181 968.162 110.496C985.119 107.336 1013 122.398 1013 146.203C1013 153.945 1012.68 161.686 1012.03 169.376C1011.39 177.433 1010.8 185.228 1015.16 192.812C1016.66 195.445 1015.91 199.5 1015.59 202.818C1015.32 206.083 1014.24 209.243 1013.49 212.561C1007.24 211.297 1012.09 204.029 1007.89 200.764C1005.14 206.136 1008.59 210.718 1008.91 215.458C1008.97 216.09 1011.07 217.09 1012.2 217.09C1021.51 217.196 1030.82 217.459 1040.08 216.985C1046.06 216.669 1047.62 213.404 1044.98 208.19C1044.66 207.505 1043.36 206.768 1043.47 206.399C1045.25 201.765 1044.17 197.394 1042.99 192.759C1041.97 188.809 1043.1 184.385 1042.72 180.225C1042.29 175.906 1040.08 175.432 1036.31 178.434C1035.88 178.75 1035.56 179.171 1035.13 179.487C1034.97 179.593 1034.59 179.487 1033.3 179.435C1034.27 176.485 1035.13 173.747 1036.26 170.429C1033.62 171.166 1031.68 171.746 1029.69 172.272L1029.91 172.483C1030.93 170.745 1031.74 168.744 1033.08 167.269C1034.59 165.689 1037.34 165.9 1037.87 162.582C1038.2 160.37 1044.5 160.528 1047.19 162.582C1052.03 166.216 1052.03 166.216 1056.93 163.214C1058.33 162.371 1059.68 161.581 1061.08 160.738C1061.29 160.633 1061.61 160.633 1063.17 160.265C1064.57 161.95 1066.46 164.214 1068.13 166.216C1073.35 163.53 1078.41 160.844 1083.85 158.053C1082.34 163.951 1082.34 163.951 1086.86 167.638C1085.52 168.533 1084.28 169.376 1082.88 170.324C1083.68 172.114 1084.55 173.905 1085.41 175.748L1085.62 175.537C1083.79 175.906 1080.67 175.116 1081.59 178.434C1082.23 180.804 1084.22 182.068 1087.18 181.12C1090.36 180.119 1093.7 179.593 1096.98 178.855C1098.22 181.699 1099.35 184.596 1100.75 187.334C1101.34 188.546 1102.53 189.441 1103.5 190.494C1104.46 189.388 1106.03 188.44 1106.35 187.176C1107.59 181.91 1106.24 176.959 1104.3 171.43C1101.5 174.326 1099.13 176.696 1096.82 179.119C1098.43 173.325 1100 167.532 1101.72 161.212C1100.05 160.633 1097.57 159.738 1093.75 158.369C1097.95 157.315 1100.97 156.578 1104.3 155.735C1103.6 153.681 1103.01 151.733 1102.2 149.31C1105.43 148.573 1110.12 150.732 1110.22 145.308C1112.11 146.256 1114.26 148.152 1115.34 147.678C1119.32 145.992 1121.8 147.888 1123.63 150.522C1125.57 153.313 1122.61 155.314 1121.47 157.579C1121.37 157.789 1121.37 158.105 1121.21 159.106C1127.72 156.947 1133.1 159.106 1138.11 162.74C1137.95 163.372 1137.73 163.951 1137.57 164.583C1137.68 163.898 1137.79 163.266 1137.89 162.582C1140.05 162.74 1142.25 162.792 1144.41 163.056C1147.21 163.372 1149.41 167.796 1152.43 165.004C1156.41 161.423 1162.01 159.106 1162.55 152.417C1162.87 148.573 1164.97 144.886 1165.89 141.042C1167.72 133.879 1168.85 126.506 1171.05 119.396C1172.94 113.287 1174.61 107.231 1175.09 100.806C1175.47 95.697 1176.87 90.6412 1177.78 85.5326C1178.7 80.2661 1180.42 74.9996 1180.26 69.7857C1179.94 59.516 1179.18 49.2463 1175.74 39.3452C1173.42 32.7621 1172.51 26.3369 1177.14 20.2804C1179.08 17.6998 1177.51 15.2246 1176.87 12.644C1175.79 8.32543 1177.03 7.00879 1181.23 8.22009C1183.44 8.85207 1185.05 9.06276 1187.31 8.11479C1191.51 6.4295 1192.75 7.21948 1193.61 11.2747C1194.04 13.3813 1193.66 15.6986 1196.52 16.2779C1199.42 16.8572 1201.95 16.2252 1203.51 13.434C1204.32 12.0647 1205.13 10.6954 1206.21 8.85211C1207.55 9.69475 1208.79 10.1687 1209.6 11.064C1214.39 16.3832 1214.39 16.4359 1217.3 9.43142C1217.51 8.95743 1218 8.64144 1218.91 7.58813C1220.79 9.11542 1222.68 10.6954 1224.62 12.328C1228.38 9.74741 1224.19 6.32418 1226.02 2.53229C1228.49 1.74231 1231.72 -0.100999 1234.95 0.00433129C1237.54 0.109662 1240.98 1.95297 1242.33 4.11224C1243.4 5.79753 1241.84 9.01007 1241.2 12.96C1244.43 10.8007 1246.63 9.32605 1249.38 7.48276C1250.67 10.3794 1251.8 12.96 1253.42 16.5939C1256 13.8553 1258.05 11.696 1260.74 8.90476C1262.25 10.8007 1263.64 12.5913 1265.04 14.4346C1266.77 16.7519 1269.35 17.1732 1271.61 16.0146C1272.85 15.3826 1273.6 13.1706 1273.87 11.5907C1274.57 7.43013 1275.7 6.16616 1279.42 7.64079C1282.32 8.79942 1284.48 9.48409 1287.65 7.79881C1290.18 6.42951 1292.77 9.22074 1291.26 11.854C1288.73 16.3305 1289.91 19.7538 1292.5 23.5984C1294.87 27.1269 1294.92 31.2875 1293.36 35.1847C1289.32 45.2438 1288.78 55.9875 1287.82 66.5205C1287.28 72.261 1288.62 78.2122 1289.38 84.0053C1290.29 91.0625 1291.42 98.1196 1292.5 105.177C1292.77 107.02 1292.77 109.021 1293.63 110.601C1297.24 117.29 1297.07 124.821 1299.07 131.878C1300.36 136.513 1301.87 141.042 1303.37 145.624C1304.77 149.942 1306.93 154.103 1304.61 158.79C1304.29 159.422 1304.29 160.423 1304.5 161.16C1307.25 170.64 1309.99 180.119 1313.01 189.546C1313.6 191.442 1315.32 194.128 1316.83 194.339C1321.94 195.024 1321.89 198.973 1323.61 202.186C1325.71 206.083 1323.29 208.717 1321.68 212.245C1323.34 212.877 1324.74 213.878 1326.14 213.878C1330.77 213.983 1335.46 213.878 1340.09 213.562C1342.72 213.351 1344.5 212.245 1344.07 208.875C1342.67 198.289 1341.54 187.65 1340.46 177.065C1340.19 174.484 1340.57 171.746 1341 169.165C1341.75 164.32 1342.67 159.633 1338.04 155.946C1337.18 155.261 1336.48 153.418 1336.75 152.365C1338.15 147.046 1338.26 141.042 1343.26 137.302C1345.04 135.986 1345.95 134.933 1345.25 132.721C1344.88 131.509 1344.77 130.035 1344.93 128.771C1345.36 125.506 1347.25 123.399 1350.69 122.925C1353.87 122.504 1357.26 124.874 1358.01 128.086C1358.34 129.35 1358.33 130.772 1358.23 132.089C1358.01 134.827 1358.82 136.618 1361.73 137.566C1364.26 138.408 1366.63 139.83 1368.99 141.147C1370.39 141.937 1371.9 142.832 1372.82 144.044C1373.52 144.992 1374.05 146.888 1373.57 147.625C1372.82 148.731 1371.15 149.468 1369.75 149.732C1368.56 149.942 1367.22 149.31 1365.82 148.994C1365.82 149.784 1365.66 150.521 1365.82 150.627C1368.24 151.891 1371.63 153.155 1369.75 156.262C1368.83 157.789 1365.17 157.789 1362.21 158.685C1363.02 164.32 1364.2 170.798 1364.79 177.381C1365.49 184.754 1365.93 192.127 1366.03 199.5C1366.09 202.028 1364.85 204.609 1364.09 207.137C1362.8 211.455 1363.45 212.614 1367.92 212.719C1372.01 212.824 1376.1 212.614 1380.24 212.614C1392.84 212.614 1405.38 212.614 1417.98 212.614C1422.13 212.614 1425.95 213.351 1429.61 215.721C1434.29 218.723 1439.84 219.25 1445.38 218.776C1448.88 218.46 1450.82 216.511 1449.58 213.404C1446.78 206.347 1448.72 198.657 1445.43 191.653C1442.47 185.333 1443.71 178.803 1446.46 172.272C1448.77 166.637 1449.85 160.528 1451.46 154.629C1452.16 152.049 1452.54 149.363 1453.51 146.888C1455.07 142.938 1454.26 139.62 1451.68 136.407C1448.13 132.036 1444.2 127.981 1444.63 121.556C1444.74 119.976 1441.99 117.711 1440.05 116.605C1436.55 114.604 1432.52 113.393 1428.96 111.444C1427.56 110.654 1425.89 108.547 1426.06 107.283C1426.22 106.019 1428.42 104.387 1429.99 104.018C1435.26 102.807 1440.59 102.175 1446.19 101.227C1445.76 98.5936 1445.33 96.5397 1445.06 94.4857C1444.52 90.1672 1445.97 86.5859 1449.42 83.8473C1456.15 78.5281 1460.18 78.6862 1466.21 83.426C1471.6 87.6919 1472.03 93.643 1468.31 99.6469C1466.54 102.543 1465.35 105.861 1463.68 109.495C1465.51 110.391 1467.51 111.128 1469.23 112.234C1471.7 113.814 1474.56 115.288 1476.28 117.5C1483.17 126.295 1491.41 133.616 1500.5 140.094C1505.62 143.78 1507.72 149.258 1508.96 155.103C1509.06 155.683 1508.42 156.473 1507.77 157.842C1506.05 156.051 1504 154.787 1503.41 153.049C1501.2 147.046 1496.09 143.886 1491.3 140.462C1484.73 135.775 1478.11 131.193 1470.57 125.927C1469.39 131.72 1470.52 135.565 1474.56 138.619C1476.71 140.252 1478.81 141.99 1480.86 143.675C1490.44 151.627 1491.51 161.844 1488.34 172.851C1486.78 178.223 1484.57 183.437 1482.74 188.756C1482.26 190.231 1481.93 191.758 1481.29 194.286C1484.57 194.602 1487.42 195.234 1490.17 195.024C1495.07 194.655 1499.59 193.496 1502.01 199.869C1502.82 201.975 1506.64 203.345 1509.39 204.293C1516.12 206.715 1516.22 206.557 1513.91 213.035C1513.75 213.509 1513.69 214.036 1513.48 215.089C1517.03 216.616 1520.58 216.09 1524.19 215.352C1521.98 211.455 1520.05 207.716 1517.73 204.293C1516.28 202.133 1514.39 199.869 1511.06 200.659C1509.01 201.133 1507.77 200.343 1507.56 198.447C1507.23 195.55 1506.48 192.285 1509.44 190.336C1510.68 189.546 1513.48 189.336 1514.5 190.178C1523.92 197.657 1534.31 194.55 1544.54 193.18C1545.29 193.075 1546.42 192.232 1546.75 192.496C1551.48 196.235 1555.74 192.759 1560.26 192.127C1561.98 191.864 1565.21 193.075 1565.59 194.286C1566.18 196.182 1565.48 198.921 1564.4 200.817C1563.54 202.397 1561.98 204.872 1559.24 202.871C1556.01 200.501 1552.94 203.345 1549.81 203.239C1548.9 203.187 1547.5 205.188 1546.96 206.505C1546.26 208.137 1546.21 210.086 1545.83 212.298C1542.87 211.876 1540.18 211.086 1537.65 211.35C1535.06 211.613 1532.64 212.93 1530.17 215.142C1532.37 215.458 1534.58 215.879 1536.79 215.984C1550.41 216.458 1564.03 216.88 1577.65 217.301C1579.26 217.354 1580.93 217.354 1582.54 217.09C1585.29 216.669 1586.15 215.194 1585.13 212.508C1581.25 202.818 1577.43 193.128 1573.77 183.385C1572.69 180.435 1572.26 177.275 1571.51 174.168L1571.29 174.379C1572.37 175.485 1573.77 176.433 1574.36 177.749C1579.37 188.704 1584.48 199.658 1588.9 210.823C1590.83 215.668 1593.63 217.617 1598.64 217.354C1603.75 217.09 1608.87 217.038 1614.41 216.88C1614.14 213.298 1613.61 210.718 1613.82 208.137C1614.25 203.029 1612.37 199.184 1607.9 196.762C1605.37 195.392 1604.94 193.76 1605.05 190.916C1605.21 187.018 1604.35 183.016 1603.65 179.066C1603.16 176.538 1601.6 174.747 1598.59 174.695C1597.24 174.642 1595.84 174.695 1594.66 174.221C1591.43 172.904 1590.89 170.482 1593.1 167.901C1596.59 163.846 1600.15 159.843 1603.65 155.735C1604.78 154.419 1605.48 153.26 1607.58 154.629C1608.17 155.051 1610.05 153.629 1611.72 152.839C1612.31 155.367 1612.91 157.737 1613.77 161.318C1618.07 156.736 1622.11 153.365 1622.97 147.836C1627.23 148.678 1627.23 148.678 1630.4 144.149C1631.59 147.414 1632.82 149.995 1633.47 152.681C1634.71 157.737 1637.35 159.317 1642.24 157.526C1643.75 156.947 1645.1 155.946 1646.6 155.314C1652.63 152.786 1654.09 152.997 1658.18 158.316C1660.28 161.055 1662.54 160.896 1665.34 160.475C1671.96 159.422 1678.04 160.054 1684.02 164.004C1692.95 169.902 1696.02 177.697 1693.76 187.492C1691.82 195.814 1693.98 203.292 1697.04 210.823C1698.23 213.72 1700.33 214.984 1703.13 215.51C1706.47 216.195 1708.46 214.984 1709 211.666C1710.23 204.029 1711.26 196.34 1712.33 188.704C1712.49 187.65 1712.17 186.439 1712.55 185.544C1714.81 180.119 1714.32 175.274 1709.48 170.692C1714.92 171.798 1719.76 171.272 1724.39 169.323C1725.63 168.796 1727.73 168.112 1727.73 167.48C1727.89 161.686 1732.74 156.104 1728.16 149.942C1724.98 145.676 1726.06 142.253 1730.31 140.041C1734.51 137.882 1737.58 140.726 1740.81 142.569C1743.66 144.149 1743.02 146.572 1741.78 148.836C1740.06 151.891 1741.19 153.629 1744.04 155.367C1745.55 156.262 1746.84 158.053 1747.43 159.738C1750.88 169.692 1753.41 179.751 1750.88 190.389C1750.18 193.233 1750.61 196.498 1749.37 199.026C1746.25 205.293 1749.42 209.138 1754.05 212.456C1759.38 216.248 1764.93 219.355 1771.98 219.355C1776.66 219.355 1780.11 217.617 1782.05 213.825C1785.76 206.715 1789.96 199.605 1792.17 191.969C1793.73 186.544 1793.08 180.225 1792.11 174.484C1788.67 154.208 1784.84 134.037 1780.75 113.866C1779.62 108.179 1777.31 102.701 1775.26 97.1716C1774.89 96.171 1773.43 95.4864 1772.46 94.6964C1771.82 95.9604 1771.06 97.1716 1770.58 98.4883C1770.36 99.1202 1770.63 99.9629 1770.69 101.016C1761.7 99.3836 1763.1 90.6411 1759.33 85.6379C1757.01 86.2173 1754.75 86.8492 1751.95 87.5339C1751.04 91.2204 1752.01 96.2237 1746.68 98.7516C1745.22 99.4362 1744.9 102.385 1744.04 104.334C1739.36 101.438 1737.47 96.5397 1739.63 90.8518C1741.62 85.638 1744.31 80.6348 1746.79 75.5789C1748.29 72.5243 1750.02 69.6277 1752.49 65.0459C1749.21 66.0465 1747.81 66.5731 1746.41 66.9418C1745.12 67.2578 1743.82 67.7318 1742.53 67.6791C1739.03 67.5211 1737.31 62.2546 1732.3 65.0985C1729.45 66.7311 1725.15 65.9412 1721.27 66.2572C1720.03 61.7806 1723.05 59.99 1725.47 58.1467C1727.41 56.6721 1729.77 55.8821 1731.93 54.7235C1734.24 53.4595 1736.02 51.9322 1735 49.7729C1729.45 48.035 1724.5 46.455 1719.17 44.7698C1720.52 40.4512 1723.42 39.6612 1726.81 39.2926C1733.38 38.6079 1739.09 41.2412 1744.96 43.4531C1747.38 44.3484 1749.53 46.6131 1752.81 44.6644C1752.17 41.0832 1748.72 37.502 1752.33 33.6048C1752.92 32.9728 1751.74 30.7081 1751.25 29.2335C1750.02 25.4943 1748.72 21.8077 1747.27 17.5945C1756.85 20.7018 1760.14 25.1783 1764.33 40.2406C1770.69 35.0794 1773.16 24.2303 1785.22 27.1796C1782.64 31.3401 1780.27 35.2374 1777.68 39.4506C1778.17 40.3986 1778.98 41.7678 1779.52 43.2425C1780.38 45.4544 1782.15 45.7704 1784.2 45.4017C1786.89 44.9277 1789.58 44.5591 1792.22 43.7691C1797.17 42.3471 1801.32 43.5585 1805.46 47.0344C1803.47 50.2996 1800.62 51.9849 1796.96 52.1429C1794.48 52.2482 1792.17 52.9856 1792.27 55.4608C1792.33 57.1988 1793.89 59.2 1795.29 60.464C1796.85 61.886 1799.11 62.518 1800.94 63.6239C1804.6 65.8359 1807.02 68.8377 1807.35 73.7883C1801.26 73.7356 1795.93 72.9456 1791.84 67.9424C1791.95 74.9996 1802.12 78.6862 1797.87 87.8499C1794.21 85.1113 1790.66 83.11 1787.97 80.3188C1785.06 77.3169 1782.48 79.0548 1779.73 79.8448C1776.93 80.6874 1776.02 83.0574 1776.39 85.5853C1776.82 88.4819 1777.47 91.3784 1778.49 94.117C1787.59 119.133 1792.6 145.097 1797.5 171.061C1797.82 172.799 1798.41 174.484 1799.22 177.539C1800.78 175.274 1801.75 174.168 1802.34 172.904C1812.03 153.418 1823.33 134.88 1835.93 117.026C1837.01 115.499 1838.03 113.919 1839.05 112.339C1841.1 109.232 1839.75 106.915 1837.38 104.597C1834.96 102.227 1833.13 102.491 1830.33 104.334C1827.59 106.125 1824.03 106.651 1820.27 107.915C1819.73 103.017 1822.31 100.542 1825.11 98.0143C1827.05 96.2763 1828.66 94.2751 1830.39 92.3791C1830.55 92.2738 1830.66 92.1685 1830.82 92.0631C1830.76 92.2211 1830.66 92.4318 1830.6 92.5898C1826.08 94.6964 1821.45 94.1171 1815.96 92.9058C1817.25 91.1678 1817.95 89.3772 1819.3 88.5872C1822.1 86.9546 1825.11 85.6906 1828.23 84.69C1830.6 83.9 1833.08 83.6893 1833.67 80.6874C1834.37 77.2642 1831.52 76.9482 1829.47 75.7896C1827.64 74.7363 1825.92 73.4197 1823.07 71.5237C1830.66 68.6271 1835.66 69.7857 1840.45 72.6297C1842.82 74.0516 1845.24 75.5789 1848.04 73.9463C1849.87 72.8403 1851.54 71.787 1850.09 68.8904C1848.74 66.1519 1848.53 62.8866 1847.77 59.674C1855.9 60.148 1857.52 61.9386 1860.8 73.9989C1867.53 69.8911 1869.74 59.3054 1880.29 60.8326C1880.29 61.9386 1880.56 62.7813 1880.23 63.3606C1877.81 67.7845 1872.91 70.9444 1874.04 77.1062C1874.26 78.3702 1872.11 80.0555 1870.06 82.8467C1874.91 82.4781 1878.57 82.3727 1882.12 81.8987C1889.87 80.8454 1893.58 82.0041 1900.26 88.3766C1894.66 90.0092 1889.6 91.7998 1883.73 89.3772C1883.14 97.8036 1894.55 99.1729 1892.19 107.863C1889.76 107.283 1887.13 107.336 1885.4 106.072C1881.74 103.439 1878.67 100.911 1873.83 104.281C1872.86 104.966 1869.74 102.649 1866.83 101.385C1866.99 103.755 1866.94 105.756 1867.26 107.705C1868.01 111.918 1869.36 116.078 1869.68 120.292C1870.11 126.138 1869.36 131.825 1862.31 136.355C1861.39 129.508 1860.64 123.926 1859.78 117.658C1858.81 117.395 1856.55 116.763 1854.23 116.184C1850.41 119.607 1847.77 124.768 1841.31 125.822C1841.21 123.715 1841.15 122.03 1841.04 120.028C1839.86 120.344 1838.78 120.292 1838.46 120.766C1833.89 127.349 1828.77 133.669 1824.95 140.673C1817.2 154.787 1810.15 169.218 1802.88 183.595C1801.91 185.491 1800.83 187.703 1801.05 189.652C1801.91 197.867 1803.2 206.031 1804.49 214.194C1804.87 216.722 1806.92 217.406 1809.34 217.564C1822.9 218.565 1836.47 219.618 1850.04 220.619C1851.65 220.724 1853.32 220.514 1854.88 220.092C1857.3 219.408 1858.54 217.775 1857.63 215.194C1857.09 213.667 1856.44 212.192 1855.69 210.77C1853.37 206.505 1852.08 206.083 1848.26 209.085C1844.87 211.771 1841.26 213.772 1837.06 212.614C1833.24 211.56 1829.69 210.086 1828.34 205.241C1827.21 201.343 1824.36 197.762 1821.83 194.392C1818.81 190.336 1819.08 181.91 1822.9 178.434C1824.9 176.643 1827.05 174.905 1829.36 173.536C1832.75 171.535 1834.59 168.375 1837.01 165.478C1841.1 160.633 1846.05 156.367 1851.17 152.523C1852.57 151.469 1856.01 152.154 1858.06 153.049C1860.48 154.103 1862.36 154.524 1865 153.629C1871.03 151.575 1876.04 153.997 1878.78 159.633C1881.42 165.11 1883.84 170.692 1886.91 175.959C1888.58 178.855 1891.75 180.962 1893.53 183.859C1895.25 186.65 1894.82 190.81 1899.4 191.548C1899.61 191.6 1899.83 191.864 1899.99 192.074C1902.25 194.971 1898.21 207.295 1894.45 208.085C1888.09 209.401 1881.63 210.507 1875.17 211.034C1871.89 211.297 1868.5 210.086 1865.27 209.559C1865.27 216.406 1867.15 219.092 1874.04 220.198C1877.27 220.724 1880.56 220.619 1883.84 220.619C1897.25 220.724 1910.6 220.83 1924 220.882C1924 237.998 1924 255.115 1924 272.231C1278.02 272.231 632.036 272.231 -14 272.231C-13.8923 258.327 -13.7847 244.424 -13.677 230.52C-13.677 228.361 -13.6232 226.254 -13.6232 224.095C-13.5693 221.777 -12.2235 220.724 -9.96261 220.724C-5.87139 220.672 -1.78017 220.724 2.36488 220.619C12.1623 220.356 21.9058 220.092 32.3492 219.197C28.3118 215.932 28.258 212.666 29.8729 208.506C31.2726 204.872 31.3264 200.659 31.8109 196.709C32.3492 192.496 33.1567 188.23 32.9952 184.017C32.7799 179.277 32.2415 174.379 30.7881 169.902C26.9122 158.263 31.1649 148.52 37.6786 139.304C40.9085 134.722 40.8008 131.983 35.7944 124.663C34.5025 125.505 33.1029 126.19 31.8647 127.138C26.5354 131.299 21.2598 135.565 15.8767 139.672C12.2161 142.516 9.25535 145.571 7.42507 150.048C5.91778 153.734 2.5802 156.789 -0.111389 160.37C-2.74915 158.79 -2.47999 156.104 -1.88784 154.103C-0.434378 149.31 0.749925 144.412 4.94881 140.778C11.8931 134.775 18.6221 128.507 25.2434 122.188C30.3036 117.342 35.2023 112.339 40.0472 107.283C42.5773 104.65 42.2004 100.016 39.3473 95.4864C36.3866 90.7465 36.6019 87.3759 40.1548 84.058C43.3309 81.0561 46.83 80.6347 50.5982 83.0047C54.9047 85.7433 57.8655 89.3772 58.2961 94.6964C58.5115 97.593 59.0498 100.49 59.6958 103.333C60.5571 107.125 63.141 107.705 66.2633 106.546C67.0169 102.491 67.6091 98.5936 68.5242 94.8017C68.6857 94.0644 70.0315 93.0637 70.7851 93.0637C71.5926 93.1164 73.0461 94.1697 73.0999 94.8544C73.5306 102.912 77.8909 106.125 85.8581 105.387C86.827 105.282 88.119 105.914 88.765 106.651C89.7878 107.757 91.0797 109.337 90.8644 110.496C90.7029 111.602 88.8188 113.024 87.5268 113.235C82.9511 114.024 78.3216 114.498 73.6921 114.867C70.3006 115.13 68.6319 116.078 67.6629 119.818C66.4786 124.61 63.787 129.139 61.4722 133.616C60.1264 136.197 60.7724 138.093 63.3564 138.461C71.7003 139.62 77.5141 145.097 84.0278 149.415C90.5953 153.734 94.202 160.054 94.1482 167.69C94.0943 177.012 93.1792 186.334 92.4255 195.656C92.3179 197.025 90.9721 198.341 90.1108 199.658C89.4109 200.764 87.8498 201.923 88.0652 202.818C89.5725 209.612 83.651 211.139 79.8289 213.825C76.8143 215.932 72.9922 216.88 69.7085 219.46C77.2988 219.46 84.8353 219.355 92.4255 219.513C98.1317 219.618 103.838 219.987 109.544 220.461C117.027 221.093 118.965 220.25 121.979 213.246C129.354 195.972 136.568 178.645 143.835 161.371C148.518 150.258 153.471 139.251 157.993 128.086C160.792 121.134 163.214 114.024 165.583 106.915C166.121 105.282 166.875 101.912 162.676 104.176C160.684 105.282 160.038 103.702 160.469 102.386C161.115 100.384 162.299 98.5409 163.322 96.645C164.614 94.3277 165.26 92.1684 162.407 90.4305C159.823 88.9032 157.67 89.3245 155.786 92.8004C151.264 101.227 148.734 110.18 150.51 119.87C150.887 121.977 151.264 124.084 151.587 126.19L151.802 125.979C147.334 124.558 145.342 121.029 144.912 116.974C144.104 109.337 143.835 101.648 143.243 93.1691C141.09 94.8544 139.044 96.487 136.998 98.1196C136.514 97.751 135.76 97.3296 135.814 97.119C136.837 91.4311 137.214 85.5326 139.259 80.2135C140.282 77.4749 144.212 75.7896 146.957 73.4723C141.466 69.7331 136.46 71.629 131.615 75.7896C130.646 69.1011 130.646 69.1011 141.305 62.8339C135.383 58.3574 128.762 55.6714 120.956 53.0382C131.238 50.4576 138.882 55.4082 148.68 58.8841C147.226 56.0401 146.796 54.9868 146.204 54.0388C145.504 52.9328 144.696 51.9322 142.92 49.457C145.827 50.2996 147.226 50.4576 148.357 51.0896C150.941 52.4589 153.525 52.7749 156.162 51.4056C159.069 49.8783 159.715 47.6663 158.154 44.8224C157.508 43.6638 156.647 42.6105 155.893 41.5045C155.355 40.6619 154.817 39.7666 154.171 38.6606C159.016 39.3979 159.016 39.3979 165.206 45.4017C168.328 40.2932 169.459 35.2373 166.821 29.6022C170.751 29.4968 172.15 31.4454 173.227 34.0787C174.95 38.3446 177.749 40.9778 182.917 41.3992C185.016 41.5572 186.9 44.2958 189.269 46.139C190.992 45.2964 193.576 44.0325 196.106 42.8212L196.052 42.5578ZM210.909 66.5205C211.555 66.2572 212.148 66.0465 212.794 65.7832C212.578 65.7305 212.255 65.5198 212.148 65.5725C211.771 65.8885 211.448 66.3098 211.125 66.6785C210.963 66.8365 210.856 66.9945 210.694 67.1525C210.748 66.9418 210.802 66.7312 210.909 66.5205ZM808.227 180.699C807.743 181.647 807.258 182.595 806.828 183.595C807.258 183.701 807.635 183.806 808.066 183.859C808.066 182.753 808.066 181.594 808.066 180.488C808.712 180.33 809.358 180.172 810.004 180.014C809.789 179.961 809.519 179.751 809.412 179.803C808.981 180.067 808.604 180.383 808.227 180.699ZM473.609 108.284C473.77 108.442 473.986 108.6 474.147 108.758C473.878 108.653 473.663 108.6 473.393 108.495C473.124 104.545 469.894 102.754 467.58 100.279C467.31 104.65 470.164 106.704 473.609 108.284ZM721.181 199.711L721.397 199.921C722.689 193.812 717.951 193.654 713.86 192.706C709.446 198.394 709.015 204.714 710.576 212.245C714.452 208.664 718.436 208.874 720.589 212.614C723.227 217.143 726.349 216.353 730.064 215.51C730.71 206.768 728.664 203.292 721.181 199.711ZM851.131 172.851L850.916 172.694C852.1 175.169 853.231 177.591 854.415 180.119C853.231 180.804 851.885 181.594 850.485 182.384C852.477 184.28 854.254 185.965 856.192 187.756C853.339 188.019 850.27 187.44 849.355 188.546C847.471 190.81 850.432 192.074 851.939 193.444C853.123 194.55 854.415 195.603 855.384 196.867C857.43 199.658 859.691 202.397 858.775 206.399C854.2 203.977 853.769 197.657 847.04 195.866C847.955 201.449 848.601 206.136 849.516 210.77C850.162 213.983 852.047 215.774 855.707 216.037C858.883 216.248 862.005 217.406 865.181 218.038C867.012 218.407 868.95 219.039 870.726 218.776C881.708 216.985 892.636 214.668 903.833 217.459C905.125 217.775 906.578 217.564 907.924 217.512C913.038 217.248 914.222 216.142 913.415 211.034C912.823 207.084 911.154 203.345 910.293 199.447C909.7 196.709 909.001 193.654 909.539 191.021C911.369 182.542 909.054 175.906 902.002 170.534C897.534 167.164 894.412 159.211 893.551 153.102C892.69 146.782 891.451 140.462 889.836 134.248C889.137 131.562 887.522 128.56 885.368 126.927C884.13 125.979 880.954 127.559 878.639 127.981C878.37 128.033 878.101 128.191 877.886 128.244C874.279 128.929 869.973 125.822 868.088 121.292C866.635 117.764 868.358 115.604 871.318 114.13C873.418 113.076 876.002 112.55 875.84 109.021C872.341 110.18 869.111 111.391 865.774 112.339C862.382 113.34 858.883 114.077 855.438 114.92C846.071 117.237 846.071 117.237 839.719 111.339C834.228 118.817 834.928 120.45 843.918 121.556C847.255 121.977 850.916 121.766 853.554 124.294C852.316 128.297 849.247 127.559 846.717 127.981C841.872 128.718 841.603 128.876 842.734 133.616C844.779 142.095 844.672 150.469 843.057 159.001C842.141 163.898 841.495 169.165 845.533 173.589C847.417 173.273 849.301 173.062 851.131 172.851ZM957.503 221.462C957.557 221.251 957.665 220.987 957.718 220.777C960.948 220.514 964.232 220.198 967.462 219.987C972.684 219.618 975.752 216.774 977.69 212.14C980.489 205.504 981.62 198.868 979.251 191.864C978.282 189.072 977.529 186.229 976.775 183.437C974.783 176.117 974.675 175.906 966.708 176.117C961.002 176.275 955.296 176.959 949.59 176.959C944.153 176.959 938.716 176.169 933.279 176.064C926.927 175.906 926.819 176.064 926.227 181.963C925.258 191.495 924.343 201.027 923.428 210.507C922.997 214.984 923.858 215.774 928.865 216.3C933.709 216.827 938.608 217.354 943.399 218.249C948.136 219.039 952.82 220.356 957.503 221.462ZM716.929 123.768C712.138 126.717 712.353 130.403 714.022 134.511C716.929 141.621 719.782 148.784 722.581 155.946C724.357 160.37 726.995 164.741 727.48 169.323C728.072 174.958 731.894 177.697 735.501 180.804C738.461 183.332 741.207 182.331 742.176 178.592C743.145 174.695 743.791 170.745 744.275 166.795C745.406 156.473 746.751 146.15 747.29 135.775C747.882 124.874 747.613 113.867 747.667 102.965C747.667 100.595 747.29 98.067 743.845 97.909C742.876 99.7522 742.014 101.49 740.938 103.491C734.047 98.5409 736.954 91.2731 735.231 85.4273C733.401 85.2166 731.786 85.1639 730.225 84.9006C727.264 84.374 725.219 85.48 724.95 88.3766C724.573 92.0631 722.85 93.3797 719.136 93.2744C718.436 93.2744 717.628 95.5917 716.875 96.8557C717.951 97.3823 719.19 98.541 720.105 98.383C723.981 97.593 727.372 97.9616 731.302 101.016C728.233 102.702 725.865 103.913 723.604 105.229C721.074 106.704 721.127 108.442 723.658 109.969C726.188 111.497 728.987 112.708 731.194 114.551C732.97 116.026 733.724 118.606 730.333 119.291C726.941 119.976 726.403 121.292 727.48 124.294C727.91 125.558 727.318 127.138 727.103 129.824C723.173 127.454 720.266 125.716 716.929 123.768ZM159.5 216.932C155.786 211.929 152.663 208.559 150.456 204.661C146.042 196.656 148.141 188.967 155.624 183.595C156.701 182.805 157.831 181.963 158.962 181.331C161.223 180.067 162.299 178.171 160.523 176.117C157.347 172.325 158.8 170.008 162.407 167.743C167.898 164.214 169.997 159.211 169.836 152.733C169.728 147.414 170.859 142.148 171.128 136.829C171.504 129.613 172.527 122.398 170.374 115.078C155.624 148.468 141.52 181.963 127.524 215.51C127.201 216.3 127.739 217.512 127.847 218.618C138.398 217.933 148.572 217.459 159.5 216.932ZM223.345 216.406C208.218 181.647 195.298 148.099 179.31 114.13C178.018 117.237 177.049 118.659 176.942 120.081C176.134 132.615 175.488 145.15 174.734 157.684C174.519 161.265 176.188 163.214 179.687 163.846C181.302 164.109 182.917 164.425 184.478 164.794C194.383 167.216 195.89 170.113 191.799 179.698C198.097 183.701 204.773 187.756 204.45 196.604C204.127 204.503 199.605 210.349 192.983 216.248C203.319 218.776 212.309 215.3 223.345 216.406ZM1120.78 212.508C1118.3 211.929 1116.41 211.034 1114.8 211.35C1113.67 211.56 1112.48 213.351 1112.16 214.615C1112 215.194 1113.67 216.932 1114.58 217.038C1116.36 217.248 1118.3 216.669 1120.13 216.353C1121.37 216.142 1123.04 215.142 1123.79 215.616C1127.83 218.038 1131.76 216.3 1135.74 215.932C1142.85 215.3 1142.85 215.405 1141.66 208.19C1141.5 207.137 1141.72 205.925 1141.29 205.03C1140.75 203.977 1139.72 202.976 1138.7 202.449C1138.32 202.291 1136.82 203.397 1136.49 204.187C1135.42 206.663 1134.18 208.348 1130.95 207.031C1131.7 204.082 1133.26 201.238 1132.89 198.657C1132.3 194.971 1129.93 191.548 1129.07 187.861C1127.72 182.331 1121.64 180.488 1119.91 175.063C1119 172.114 1115.12 172.43 1113.62 175.485C1112.22 178.276 1111.57 181.489 1111.03 184.649C1110.33 188.862 1110.87 188.756 1116.09 190.02C1118.24 190.547 1120.83 193.128 1121.37 195.182C1122.07 198.025 1122.07 202.133 1120.4 204.187C1117.55 207.453 1119.91 209.612 1120.78 212.508ZM446.208 214.404C453.852 214.457 455.306 213.035 455.144 205.715C455.144 205.188 455.091 204.661 455.037 204.135C454.552 197.235 454.337 190.284 453.476 183.437C452.883 178.434 451.484 173.536 450.246 168.691C450.03 167.901 448.792 167.374 448.039 166.69C447.285 167.638 446.047 168.533 445.831 169.534C445.347 172.114 445.67 174.853 445.132 177.486C443.248 187.124 440.933 196.656 439.156 206.294C438.026 213.035 439.372 214.352 446.208 214.404ZM1729.88 180.804C1720.89 180.383 1718.25 185.123 1717.77 191.864C1717.66 193.444 1716.96 194.971 1716.8 196.551C1716.32 201.817 1715.83 207.084 1715.62 212.35C1715.51 215.142 1717.72 215.826 1720.08 215.721C1722.61 215.563 1726.33 216.88 1726.81 213.193C1727.62 207.505 1728.16 201.659 1727.57 195.972C1727.19 192.074 1727.08 188.756 1728.91 185.281C1729.61 184.017 1729.56 182.384 1729.88 180.804ZM992.709 184.649C992.117 185.333 991.202 185.965 991.202 186.544C991.363 195.182 989.102 203.292 986.034 211.297C985.657 212.245 985.549 213.456 985.765 214.457C985.926 215.405 986.411 216.616 987.164 217.143C991.202 219.829 999.223 217.248 999.923 212.614C1001.43 202.502 1002.18 192.338 992.709 184.649ZM273.893 217.512C275.238 217.512 276.638 217.564 277.984 217.512C283.421 217.143 284.767 214.878 281.752 210.349C279.276 206.61 276.369 203.134 273.462 199.658C272.655 198.71 271.255 198.131 270.071 197.551C267.54 196.393 265.71 197.025 265.441 199.921C265.064 203.608 265.064 207.347 264.795 211.086C264.311 216.88 264.634 217.248 270.663 217.564C271.686 217.564 272.816 217.512 273.893 217.512ZM1507.99 214.615C1503.47 212.087 1500.34 210.823 1496.25 211.718C1487.48 213.614 1486.45 212.93 1484.36 204.767C1484.25 204.24 1484.3 203.555 1483.98 203.239C1483.12 202.344 1482.26 201.291 1481.13 200.869C1480.69 200.711 1479.3 201.923 1478.92 202.713C1477.79 205.399 1476.6 208.19 1476.12 211.034C1474.88 218.038 1476.82 220.092 1483.87 219.039C1491.41 217.933 1498.84 216.3 1507.99 214.615ZM365.03 217.248C365.03 217.301 365.03 217.406 365.03 217.459C367.775 217.459 370.521 217.617 373.212 217.406C376.227 217.143 377.627 214.931 376.119 212.403C375.15 210.77 373.212 208.822 371.49 208.611C366.645 207.979 361.692 208.085 356.794 208.032C353.779 208.032 352.433 209.823 352.379 212.666C352.326 215.668 353.994 217.09 356.847 217.248C359.539 217.354 362.285 217.248 365.03 217.248ZM596.453 207.611C596.399 207.611 596.399 207.611 596.453 207.611C596.453 206.821 596.453 206.031 596.453 205.241C596.184 199.711 595.215 198.499 590.908 198.499C586.494 198.499 585.417 199.763 585.202 205.083C585.148 206.926 585.148 208.769 585.202 210.612C585.417 215.458 586.279 216.248 590.747 216.3C595.269 216.353 596.13 215.563 596.453 210.77C596.507 209.717 596.453 208.664 596.453 207.611ZM1073.78 210.402C1073.35 213.14 1071.84 215.984 1075.88 217.038C1080.02 218.144 1084.44 216.985 1085.03 214.352C1085.95 210.191 1085.84 205.925 1083.42 202.081C1081.96 199.869 1080.24 199.974 1077.92 201.133C1073.62 203.239 1073.94 206.979 1073.78 210.402ZM1352.95 193.654C1350.1 198.657 1349.45 201.501 1348.81 208.611C1348.59 211.139 1349.13 212.666 1351.98 212.982C1355.64 213.404 1357.85 212.35 1357.9 209.454C1357.9 204.029 1358.17 198.394 1352.95 193.654ZM1058.17 215.774C1061.13 215.932 1063.55 216.3 1065.87 216.037C1066.89 215.932 1068.29 214.72 1068.72 213.72C1070.6 208.875 1068.07 203.977 1062.15 200.764C1060.91 205.346 1059.73 209.822 1058.17 215.774ZM1748.08 215.932C1743.93 210.349 1740.59 205.873 1736.72 200.659C1735.75 202.502 1734.3 204.187 1734.03 205.978C1733.65 208.506 1733.49 211.402 1734.4 213.72C1735.8 217.196 1739.52 215.563 1742.26 215.879C1743.82 216.09 1745.39 215.932 1748.08 215.932ZM801.552 208.085C801.606 213.193 803.813 215.142 806.451 213.878C810.327 211.982 812.749 203.397 810.327 199.869C808.55 197.288 806.236 197.13 804.728 199.974C803.167 202.976 802.252 206.294 801.552 208.085ZM701.91 190.652C701.102 192.39 700.779 194.076 699.756 195.024C695.504 198.973 699.756 203.239 699.272 207.295C699.218 207.611 702.502 209.033 703.094 208.559C704.547 207.347 706.108 205.451 706.324 203.661C706.862 199.131 705.624 194.813 701.91 190.652ZM1092.35 198.973C1091.17 203.345 1090.04 207.453 1088.96 211.56C1088.85 212.034 1088.75 212.719 1088.96 213.14C1089.39 213.983 1089.93 215.194 1090.68 215.405C1091.44 215.616 1092.78 214.984 1093.32 214.299C1095.53 211.402 1097.52 208.401 1099.46 205.609C1097.09 203.397 1094.99 201.449 1092.35 198.973ZM1050.15 202.449C1047.83 206.505 1046.86 211.718 1048.37 214.141C1048.91 215.036 1050.47 215.932 1051.55 215.879C1052.52 215.826 1053.97 214.72 1054.35 213.772C1055.8 209.823 1054.19 205.715 1050.15 202.449ZM1643.59 205.346C1641.28 208.453 1641.17 211.666 1642.73 214.51C1643.37 215.721 1645.8 216.037 1647.36 216.774C1647.84 215.458 1648.87 214.088 1648.81 212.824C1648.65 209.612 1647.41 206.821 1643.59 205.346ZM1795.77 204.714C1791.95 207.347 1790.55 210.612 1791.09 214.457C1791.2 215.3 1792.43 216.774 1792.7 216.722C1793.83 216.406 1795.56 215.563 1795.61 214.826C1795.93 211.455 1795.77 208.085 1795.77 204.714ZM1627.76 215.142C1627.49 211.508 1624.21 207.505 1622.7 208.453C1621.63 209.138 1620.82 210.928 1620.77 212.245C1620.66 215.616 1622.92 217.828 1625.5 217.143C1626.47 216.88 1627.22 215.616 1627.76 215.142ZM1007.67 167.585C1008.91 161.265 1008.91 155.103 1007.84 148.889C1006.44 155.156 1003.42 161.423 1007.67 167.585ZM1670.13 204.503C1670.56 209.349 1670.83 212.824 1671.15 216.406C1677.56 213.878 1677.56 210.56 1670.13 204.503ZM782.442 187.44C782.98 191.758 784.703 194.181 787.933 194.392C789.117 194.444 790.517 191.969 792.616 189.81C788.633 188.862 786.103 188.282 782.442 187.44ZM1660.49 207.4C1659.85 207.505 1659.25 207.611 1658.61 207.663C1658.12 209.717 1657.42 211.771 1657.32 213.825C1657.26 214.72 1658.61 215.668 1659.31 216.616C1660.44 215.668 1662.59 214.668 1662.54 213.825C1662.43 211.613 1661.3 209.507 1660.49 207.4ZM342.205 206.083C341.452 206.031 340.698 205.978 339.944 205.873C339.244 208.295 338.329 210.718 337.845 213.193C337.737 213.878 338.76 214.826 339.298 215.616C340.267 214.984 341.99 214.404 342.098 213.667C342.421 211.192 342.205 208.611 342.205 206.083ZM1635.25 215.142C1634.44 210.77 1633.63 206.452 1632.82 202.081C1632.29 202.186 1631.69 202.344 1631.15 202.449C1631.69 206.979 1630.99 211.771 1635.25 215.142ZM1056.02 176.959C1054.67 178.961 1053.38 180.225 1053 181.699C1052.79 182.489 1054.08 183.648 1054.67 184.596C1056.02 183.279 1057.58 182.068 1058.6 180.541C1058.81 180.225 1057.31 178.75 1056.02 176.959ZM1058.28 173.01C1056.5 170.429 1054.45 168.796 1050.9 169.85C1053.65 175.643 1053.65 175.643 1058.28 173.01ZM654.322 196.288C652.976 197.762 651.631 198.552 651.469 199.553C651.146 201.765 652.707 203.134 654.861 202.818C655.991 202.66 656.96 201.449 658.037 200.764C656.96 199.447 655.883 198.131 654.322 196.288ZM1105 213.878C1102.9 212.561 1101.45 211.192 1101.07 211.455C1099.67 212.35 1098.65 213.825 1097.47 215.036C1098.27 215.668 1099.3 216.985 1099.83 216.774C1101.29 216.3 1102.63 215.247 1105 213.878ZM1687.95 214.352C1685.69 212.93 1684.5 211.613 1683.26 211.56C1682.35 211.508 1681.38 213.14 1680.41 213.983C1681.54 214.72 1682.62 215.879 1683.86 216.142C1684.77 216.3 1685.9 215.3 1687.95 214.352ZM784.488 201.396C785.134 201.027 785.78 200.659 786.426 200.29C786.372 198.289 785.995 196.34 783.411 195.814C782.873 195.708 782.173 196.498 781.527 196.92C782.55 198.394 783.519 199.921 784.488 201.396ZM720.912 171.061C717.305 170.85 715.852 172.062 717.413 175.748C718.867 173.747 719.889 172.43 720.912 171.061ZM815.764 184.175C814.903 183.437 814.149 182.595 813.987 182.647C813.18 183.121 812.372 183.753 811.888 184.543C811.78 184.754 812.911 186.123 813.018 186.071C813.88 185.649 814.633 185.017 815.764 184.175ZM1076.96 197.288C1075.83 196.498 1074.86 195.603 1074.7 195.708C1074 196.288 1073.35 197.077 1073.03 197.867C1072.92 198.131 1074.21 199.289 1074.53 199.184C1075.34 198.921 1075.99 198.131 1076.96 197.288ZM1119.54 154.945C1120.18 154.103 1120.88 153.576 1120.83 153.049C1120.78 152.47 1120.08 151.943 1119.7 151.417C1119.27 151.891 1118.46 152.312 1118.41 152.839C1118.41 153.365 1119.05 153.997 1119.54 154.945ZM815.549 170.85C815.818 170.85 816.087 170.85 816.356 170.798C816.248 169.376 816.141 167.954 816.033 166.532C815.872 166.532 815.71 166.532 815.495 166.584C815.549 167.954 815.549 169.428 815.549 170.85ZM1066.24 195.708C1065.76 196.13 1065.44 196.446 1065.11 196.762C1065.6 197.235 1066.03 197.92 1066.57 198.025C1066.94 198.078 1067.48 197.288 1067.91 196.867C1067.37 196.498 1066.78 196.077 1066.24 195.708ZM722.689 177.012C723.119 176.854 723.765 176.749 723.873 176.433C723.981 176.117 723.604 175.643 723.442 175.221C722.904 175.485 722.419 175.748 721.881 176.064C722.15 176.38 722.419 176.696 722.689 177.012ZM744.975 89.5878C744.814 89.2192 744.706 88.7979 744.491 88.4292C744.437 88.3239 743.845 88.4292 743.845 88.4819C743.737 88.9032 743.791 89.3245 743.737 89.7459C744.168 89.6932 744.598 89.6405 744.975 89.5878ZM1127.07 166.479C1126.86 165.794 1126.7 165.057 1126.54 165.057C1125.84 165.057 1125.19 165.32 1124.49 165.426C1124.65 165.847 1124.81 166.584 1125.08 166.637C1125.67 166.795 1126.37 166.584 1127.07 166.479ZM665.196 216.458C665.95 216.195 666.757 215.984 666.757 215.879C666.704 215.194 666.434 214.562 666.219 213.878C665.788 214.088 664.981 214.194 664.927 214.457C664.819 215.089 665.089 215.774 665.196 216.458ZM1443.93 109.759C1444.41 109.601 1444.84 109.443 1445.33 109.232C1445.17 109.021 1445 108.705 1444.79 108.705C1444.3 108.653 1443.82 108.758 1443.28 108.811C1443.5 109.127 1443.71 109.443 1443.93 109.759ZM1138.59 179.329C1138.49 179.645 1138.38 179.961 1138.22 180.277C1138.43 180.33 1138.75 180.541 1138.92 180.435C1139.29 180.277 1139.56 179.961 1139.94 179.698C1139.51 179.645 1139.08 179.487 1138.59 179.329ZM724.465 185.965C724.68 185.596 724.896 185.228 725.057 184.859C725.057 184.859 724.627 184.491 724.519 184.543C724.142 184.754 723.873 185.07 723.55 185.333C723.873 185.491 724.196 185.754 724.465 185.965ZM1771.39 88.5345C1771.17 88.1132 1771.01 87.6392 1770.79 87.2179C1770.58 87.3759 1770.2 87.5339 1770.2 87.6919C1770.2 88.1659 1770.31 88.6398 1770.36 89.1138C1770.69 88.9032 1771.06 88.6925 1771.39 88.5345ZM675.693 215.247C675.317 214.984 674.994 214.51 674.617 214.51C674.24 214.51 673.809 214.878 673.379 215.142C673.756 215.405 674.132 215.879 674.509 215.879C674.886 215.879 675.263 215.458 675.693 215.247ZM197.828 55.8294C197.667 55.9348 197.398 56.0401 197.344 56.1981C197.29 56.3034 197.505 56.5141 197.613 56.6721C197.882 56.4614 198.151 56.2508 198.367 56.0928C198.205 55.9874 197.99 55.8821 197.828 55.8294ZM738.569 197.973L738.246 198.499L738.73 198.605L738.569 197.973ZM1850.79 197.341C1850.57 197.288 1850.3 197.13 1850.09 197.13C1849.98 197.13 1849.93 197.499 1849.87 197.657C1850.09 197.71 1850.36 197.867 1850.57 197.867C1850.63 197.867 1850.68 197.551 1850.79 197.341ZM423.976 108.389C423.814 108.231 423.707 108.021 423.545 107.863C423.384 108.021 423.222 108.179 423.061 108.284C423.276 108.495 423.491 108.758 423.76 108.969C423.814 108.758 423.922 108.547 423.976 108.389ZM756.926 201.607C756.818 201.449 756.764 201.238 756.657 201.08C756.549 201.238 756.334 201.396 756.28 201.554C756.28 201.712 756.441 201.923 756.549 202.081C756.657 201.923 756.818 201.765 756.926 201.607ZM152.879 62.2546C152.933 62.0439 153.094 61.8333 153.04 61.6226C153.04 61.57 152.717 61.4646 152.556 61.4119C152.502 61.6226 152.394 61.8333 152.394 62.044C152.394 62.0966 152.717 62.1492 152.879 62.2546ZM1671.58 200.343L1670.94 200.606L1671.58 200.869V200.343ZM695.88 211.718C695.934 211.929 695.88 212.192 695.988 212.245C696.15 212.35 696.419 212.35 696.634 212.35C696.58 212.034 696.526 211.771 696.473 211.455C696.311 211.56 696.096 211.666 695.88 211.718ZM795.308 211.771L794.769 211.982L795.308 212.245V211.771Z" fill="#FEEAC7"/>
<path d="M1560.85 155.156C1554.88 158.579 1551.65 153.102 1546.64 151.733C1545.56 155.103 1544.59 158.263 1543.36 162.161C1539.8 159.685 1538.35 156.894 1538.83 153.313C1539.21 150.205 1539.96 147.098 1540.5 144.202C1534.96 141.147 1530.17 143.938 1524.68 144.044C1526.45 141.252 1528.17 138.514 1530.27 135.196C1527.53 134.459 1525.32 133.827 1523.06 133.195C1523.06 129.613 1525.54 128.876 1527.91 128.402C1529.47 128.086 1531.14 128.56 1532.75 128.613C1537.86 128.823 1539.05 127.191 1537.43 122.346C1536.79 120.397 1535.98 118.501 1534.96 115.815C1541.31 115.394 1542.22 120.608 1545.78 123.452C1547.07 121.608 1548.15 119.607 1549.71 118.027C1550.46 117.237 1552.24 116.605 1553.21 116.921C1553.96 117.184 1554.34 118.975 1554.5 120.134C1554.66 121.134 1554.34 122.188 1554.12 124.189C1559.13 123.662 1563.7 123.188 1568.33 122.714C1568.6 123.188 1568.82 123.662 1569.09 124.136C1567.42 126.032 1565.75 127.875 1563.7 130.245C1566.07 131.509 1568.49 132.563 1570.54 134.037C1572.37 135.354 1573.93 137.25 1570.59 138.83C1568.49 139.83 1569.25 141.094 1569.73 142.78C1570.59 145.94 1569.57 146.993 1566.93 145.992C1564.51 145.044 1562.2 142.411 1559.72 145.413C1557.41 148.204 1558.91 150.943 1560.64 153.471C1560.74 153.892 1560.69 154.524 1560.85 155.156Z" fill="#FEEAC7"/>
<path d="M1568.23 167.585C1564.67 166.321 1564.4 163.056 1562.95 159.791C1566.88 161.634 1567.9 164.425 1568.01 167.743L1568.23 167.585Z" fill="#FEEAC7"/>
<path d="M1571.4 174.221C1568.28 172.957 1568.01 170.376 1568.23 167.585L1568.01 167.743C1570.86 169.165 1571.35 171.588 1571.19 174.379L1571.4 174.221Z" fill="#FEEAC7"/>
<path d="M206.011 100.384C206.334 100.753 206.711 101.122 206.98 101.543C207.034 101.648 206.872 101.911 206.764 102.122C206.603 101.49 206.388 100.858 206.226 100.226L206.011 100.384Z" fill="#FEEAC7"/>
<path d="M196.267 42.7165C196.374 42.5056 196.428 42.2947 196.535 42.0311C196.374 42.1893 196.213 42.3474 196.105 42.5056L196.267 42.7165Z" fill="#FEEAC7"/>
<path d="M1085.46 175.906C1085.68 176.011 1085.89 176.064 1086.11 176.169C1085.95 176.011 1085.84 175.853 1085.68 175.695L1085.46 175.906Z" fill="#FEEAC7"/>
<path d="M1029.75 172.483C1029.69 172.641 1029.64 172.852 1029.53 173.01C1029.64 172.904 1029.8 172.799 1029.91 172.694C1029.96 172.641 1029.75 172.483 1029.75 172.483Z" fill="#FEEAC7"/>
<path d="M151.748 126.137C151.963 126.243 152.125 126.295 152.34 126.401C152.232 126.243 152.071 126.085 151.963 125.979L151.748 126.137Z" fill="#FEEAC7"/>
<path d="M851.132 172.851C851.24 172.167 851.347 171.535 851.509 170.85C851.294 171.482 851.132 172.062 850.917 172.694C850.917 172.694 851.132 172.851 851.132 172.851Z" fill="#FEEAC7"/>
<path d="M721.181 199.711C720.966 200.343 720.75 200.975 720.535 201.607C720.481 201.396 720.32 201.133 720.374 201.027C720.643 200.606 721.02 200.29 721.396 199.921L721.181 199.711Z" fill="#FEEAC7"/>
</svg>
