<svg xmlns="http://www.w3.org/2000/svg" xmlns:xlink="http://www.w3.org/1999/xlink" width="100" zoomAndPan="magnify" viewBox="0 0 75 74.999997" height="100" preserveAspectRatio="xMidYMid meet" version="1.0"><path fill="#ffffff" d="M 72.964844 0.820312 C 74.441406 1.84375 75.21875 3.617188 74.941406 5.390625 L 65.566406 66.328125 C 65.347656 67.75 64.480469 68.992188 63.222656 69.695312 C 61.960938 70.398438 60.453125 70.488281 59.121094 69.929688 L 41.601562 62.652344 L 31.566406 73.503906 C 30.265625 74.925781 28.214844 75.394531 26.410156 74.691406 C 24.609375 73.988281 23.4375 72.246094 23.4375 70.3125 L 23.4375 58.066406 C 23.4375 57.480469 23.65625 56.921875 24.050781 56.5 L 48.601562 29.707031 C 49.453125 28.785156 49.421875 27.363281 48.542969 26.484375 C 47.664062 25.605469 46.246094 25.546875 45.320312 26.382812 L 15.527344 52.851562 L 2.59375 46.375 C 1.039062 45.601562 0.0429688 44.046875 0 42.320312 C -0.0429688 40.589844 0.863281 38.980469 2.359375 38.113281 L 67.984375 0.613281 C 69.550781 -0.277344 71.484375 -0.191406 72.964844 0.820312 Z M 72.964844 0.820312 " fill-opacity="1" fill-rule="nonzero"/></svg>